<svg width="22" height="22" viewBox="0 0 22 22" fill="none" xmlns="http://www.w3.org/2000/svg">
<path fill-rule="evenodd" clip-rule="evenodd" d="M8.18506 4.09777C7.01978 3.96753 5.81353 3.96753 4.64825 4.09777C4.3651 4.12942 4.1418 4.35362 4.10995 4.62593C3.9708 5.81571 3.9708 7.01765 4.10995 8.20743C4.1418 8.47973 4.3651 8.70394 4.64825 8.73558C5.81353 8.86582 7.01978 8.86582 8.18506 8.73558C8.46821 8.70394 8.69151 8.47973 8.72336 8.20743C8.86251 7.01765 8.86251 5.8157 8.72336 4.62593C8.69151 4.35362 8.46821 4.12942 8.18506 4.09777ZM4.49552 2.73128C5.76231 2.5897 7.071 2.5897 8.33779 2.73128C9.24606 2.83279 9.98163 3.54778 10.089 4.4662C10.2406 5.7621 10.2406 7.07125 10.089 8.36716C9.98163 9.28558 9.24606 10.0006 8.33779 10.1021C7.071 10.2437 5.76231 10.2437 4.49552 10.1021C3.58725 10.0006 2.85168 9.28558 2.74426 8.36716C2.59269 7.07125 2.59269 5.7621 2.74426 4.4662C2.85168 3.54778 3.58725 2.83279 4.49552 2.73128Z" fill="#6D747A"/>
<path fill-rule="evenodd" clip-rule="evenodd" d="M8.18506 13.2644C7.01978 13.1342 5.81353 13.1342 4.64825 13.2644C4.3651 13.2961 4.1418 13.5203 4.10995 13.7926C3.9708 14.9824 3.9708 16.1843 4.10995 17.3741C4.1418 17.6464 4.3651 17.8706 4.64825 17.9023C5.81353 18.0325 7.01978 18.0325 8.18506 17.9023C8.46821 17.8706 8.69151 17.6464 8.72336 17.3741C8.86251 16.1843 8.86251 14.9824 8.72336 13.7926C8.69151 13.5203 8.46821 13.2961 8.18506 13.2644ZM4.49552 11.8979C5.76231 11.7564 7.071 11.7564 8.33779 11.8979C9.24606 11.9995 9.98163 12.7144 10.089 13.6329C10.2406 14.9288 10.2406 16.2379 10.089 17.5338C9.98163 18.4522 9.24606 19.1672 8.33779 19.2687C7.071 19.4103 5.76231 19.4103 4.49552 19.2687C3.58725 19.1672 2.85168 18.4522 2.74426 17.5338C2.59269 16.2379 2.59269 14.9288 2.74426 13.6329C2.85168 12.7144 3.58725 11.9995 4.49552 11.8979Z" fill="#6D747A"/>
<path fill-rule="evenodd" clip-rule="evenodd" d="M17.3517 4.09777C16.1864 3.96753 14.9802 3.96753 13.8149 4.09777C13.5318 4.12942 13.3085 4.35362 13.2766 4.62593C13.1375 5.81571 13.1375 7.01765 13.2766 8.20743C13.3085 8.47973 13.5318 8.70394 13.8149 8.73558C14.9802 8.86582 16.1864 8.86582 17.3517 8.73558C17.6349 8.70394 17.8582 8.47973 17.89 8.20743C18.0292 7.01765 18.0292 5.8157 17.89 4.62593C17.8582 4.35362 17.6349 4.12942 17.3517 4.09777ZM13.6622 2.73128C14.929 2.5897 16.2377 2.5897 17.5045 2.73128C18.4127 2.83279 19.1483 3.54778 19.2557 4.4662C19.4073 5.7621 19.4073 7.07125 19.2557 8.36716C19.1483 9.28558 18.4127 10.0006 17.5045 10.1021C16.2377 10.2437 14.929 10.2437 13.6622 10.1021C12.7539 10.0006 12.0183 9.28558 11.9109 8.36716C11.7594 7.07125 11.7594 5.7621 11.9109 4.4662C12.0183 3.54778 12.7539 2.83279 13.6622 2.73128Z" fill="#6D747A"/>
<path fill-rule="evenodd" clip-rule="evenodd" d="M17.3517 13.2644C16.1864 13.1342 14.9802 13.1342 13.8149 13.2644C13.5318 13.2961 13.3085 13.5203 13.2766 13.7926C13.1375 14.9824 13.1375 16.1843 13.2766 17.3741C13.3085 17.6464 13.5318 17.8706 13.8149 17.9023C14.9802 18.0325 16.1864 18.0325 17.3517 17.9023C17.6349 17.8706 17.8582 17.6464 17.89 17.3741C18.0292 16.1843 18.0292 14.9824 17.89 13.7926C17.8582 13.5203 17.6349 13.2961 17.3517 13.2644ZM13.6622 11.8979C14.929 11.7564 16.2377 11.7564 17.5045 11.8979C18.4127 11.9995 19.1483 12.7144 19.2557 13.6329C19.4073 14.9288 19.4073 16.2379 19.2557 17.5338C19.1483 18.4522 18.4127 19.1672 17.5045 19.2687C16.2377 19.4103 14.929 19.4103 13.6622 19.2687C12.7539 19.1672 12.0183 18.4522 11.9109 17.5338C11.7594 16.2379 11.7594 14.9288 11.9109 13.6329C12.0183 12.7144 12.7539 11.9995 13.6622 11.8979Z" fill="#6D747A"/>
</svg>
