<svg width="140" height="140" viewBox="0 0 140 140" fill="none" xmlns="http://www.w3.org/2000/svg">
<path d="M140 140H0V1.52588e-05H140V140Z" fill="#DDE3C2"/>
<path d="M8.98898 116.669C25.0668 116.669 41.1446 116.669 57.2225 116.669C73.218 116.669 89.2139 116.669 105.21 116.669C114.233 116.669 123.256 116.669 132.28 116.669C132.505 116.669 132.505 116.319 132.28 116.319C116.202 116.319 100.124 116.319 84.0462 116.319C68.0504 116.319 52.0545 116.319 36.0587 116.319C27.0355 116.319 18.0123 116.319 8.98898 116.319C8.76377 116.319 8.76344 116.669 8.98898 116.669Z" fill="#1B1C1D"/>
<path d="M27.2231 121.822C28.8103 123.42 29.9603 125.189 33.4441 126.951C45.978 133.293 55.6755 133.379 70.0367 133.491C84.3982 133.603 105.423 128.103 114.805 120.005C108.624 120.357 102.442 120.708 96.2612 121.059C73.0962 122.374 49.7961 123.689 26.6676 122.056" fill="#CDD3B1"/>
<path d="M81.8009 35.3365C87.5073 29.8597 94.3524 21.9601 98.9621 15.533" stroke="#3D907E" stroke-width="1.33333" stroke-miterlimit="10" stroke-linecap="round" stroke-linejoin="round"/>
<path d="M93.3755 22.5683L93.6774 16.62" stroke="#3D907E" stroke-width="1.33333" stroke-miterlimit="10" stroke-linecap="round" stroke-linejoin="round"/>
<path d="M97.0931 23.851C93.9106 24.9023 94.5689 24.568 91.2764 25.1949" stroke="#3D907E" stroke-width="1.33333" stroke-miterlimit="10" stroke-linecap="round" stroke-linejoin="round"/>
<path d="M99.44 13.7144C98.6796 13.4915 97.8824 13.9272 97.6593 14.6877C97.4361 15.4482 97.8718 16.2456 98.6323 16.4685C99.3927 16.6916 100.19 16.256 100.413 15.4955C100.636 14.735 100.201 13.9376 99.44 13.7144Z" fill="#F8A264"/>
<path d="M97.3714 22.3476C96.5653 22.1113 95.7202 22.573 95.4839 23.3789C95.2476 24.185 95.7093 25.03 96.5151 25.2663C97.3213 25.5027 98.1663 25.0409 98.4026 24.2351C98.6389 23.429 98.1772 22.5842 97.3714 22.3476Z" fill="#F8A264"/>
<path d="M94.4533 15.3174C93.865 14.9503 93.0905 15.1298 92.7237 15.7178C92.3566 16.3061 92.5361 17.0806 93.1244 17.4474C93.7127 17.8145 94.4868 17.635 94.8539 17.0467C95.2207 16.4584 95.0413 15.6842 94.4533 15.3174Z" fill="#F8A264"/>
<path d="M97.0371 66.4239C99.1376 65.3086 101.73 65.1661 103.94 66.0447C104.382 66.2203 104.817 66.4398 105.153 66.7755C105.489 67.1113 105.718 67.5797 105.676 68.0529C102.753 68.7285 99.5702 68.2046 97.0177 66.6269" fill="#3D907E"/>
<path d="M100.311 60.2459C97.8779 63.2968 96.084 66.8195 95.0572 70.5849C94.9978 70.8025 95.3352 70.8954 95.3946 70.6779C96.4046 66.9737 98.1641 63.4956 100.559 60.4934C100.698 60.319 100.451 60.0698 100.311 60.2459Z" fill="#3D907E"/>
<path d="M100.865 56.1425C100.685 57.6167 100.864 58.8518 101.266 58.9008C101.667 58.9498 102.138 57.7942 102.318 56.32C102.498 54.8456 102.319 53.6108 101.917 53.5618C101.516 53.5128 101.045 54.6683 100.865 56.1425Z" fill="white"/>
<path d="M102.298 56.3119C101.405 57.4986 100.943 58.6578 101.266 58.9008C101.588 59.1436 102.574 58.3786 103.467 57.192C104.36 56.005 104.822 54.8461 104.5 54.6031C104.177 54.36 103.191 55.125 102.298 56.3119Z" fill="white"/>
<path d="M103.454 57.1749C102.087 57.7562 101.107 58.5287 101.266 58.9008C101.424 59.2726 102.66 59.103 104.027 58.5217C105.394 57.9404 106.373 57.1676 106.215 56.7958C106.057 56.4239 104.821 56.5936 103.454 57.1749Z" fill="white"/>
<path d="M104.024 58.5001C102.549 58.3201 101.315 58.4996 101.266 58.9008C101.217 59.3018 102.372 59.773 103.846 59.953C105.321 60.1331 106.556 59.9539 106.604 59.5526C106.653 59.1514 105.498 58.6802 104.024 58.5001Z" fill="white"/>
<path d="M103.855 59.9329C102.668 59.0399 101.509 58.5777 101.266 58.9008C101.023 59.2236 101.788 60.2095 102.974 61.1024C104.161 61.9953 105.32 62.4576 105.563 62.1348C105.806 61.8117 105.041 60.8261 103.855 59.9329Z" fill="white"/>
<path d="M102.992 61.089C102.41 59.7223 101.637 58.7426 101.266 58.9008C100.894 59.0587 101.063 60.2952 101.644 61.6619C102.226 63.0286 102.999 64.0086 103.37 63.8504C103.743 63.6922 103.573 62.456 102.992 61.089Z" fill="white"/>
<path d="M101.666 61.6588C101.846 60.1846 101.667 58.9498 101.266 58.9008C100.864 58.8518 100.393 60.0071 100.213 61.4816C100.033 62.9558 100.213 64.1906 100.614 64.2396C101.015 64.2886 101.486 63.133 101.666 61.6588Z" fill="white"/>
<path d="M100.233 61.4897C101.126 60.3028 101.588 59.1436 101.266 58.9008C100.943 58.6578 99.9569 59.4227 99.0637 60.6096C98.1708 61.7963 97.7085 62.9555 98.0316 63.1985C98.3545 63.4413 99.3404 62.6763 100.233 61.4897Z" fill="white"/>
<path d="M99.0772 60.6267C100.444 60.0455 101.424 59.2727 101.266 58.9008C101.107 58.5287 99.8712 58.6984 98.5043 59.2797C97.1376 59.8609 96.1579 60.6337 96.3161 61.0056C96.4743 61.3777 97.7105 61.2077 99.0772 60.6267Z" fill="white"/>
<path d="M98.5074 59.3012C99.9818 59.4812 101.217 59.3018 101.266 58.9008C101.315 58.4996 100.159 58.0283 98.6849 57.8483C97.2104 57.6683 95.9756 57.8477 95.9266 58.2487C95.8776 58.6499 97.0332 59.1212 98.5074 59.3012Z" fill="white"/>
<path d="M98.6768 57.8684C99.8634 58.7614 101.023 59.2237 101.266 58.9008C101.509 58.5777 100.743 57.5921 99.5568 56.6989C98.3699 55.806 97.211 55.3437 96.9679 55.6668C96.7249 55.9896 97.4898 56.9755 98.6768 57.8684Z" fill="white"/>
<path d="M99.5397 56.7123C100.121 58.079 100.894 59.0587 101.266 58.9008C101.637 58.7426 101.468 57.5064 100.887 56.1394C100.305 54.7728 99.5327 53.7931 99.1606 53.951C98.7888 54.1092 98.9584 55.3454 99.5397 56.7123Z" fill="white"/>
<path d="M100.324 59.0335C100.398 59.5535 100.879 59.9155 101.399 59.8421C101.919 59.7688 102.28 59.2877 102.207 58.7678C102.134 58.2478 101.653 57.8858 101.133 57.9591C100.613 58.0328 100.251 58.5138 100.324 59.0335Z" fill="#F8A264"/>
<path d="M96.4855 42.9556C96.3841 41.3417 96.6053 39.7082 97.132 38.1794C97.358 37.5234 97.6581 36.8614 98.194 36.4207C98.73 35.98 99.5571 35.8274 100.119 36.2337C100.592 36.5753 100.764 37.2229 100.682 37.8003C100.601 38.3779 100.309 38.9021 100.006 39.4005C98.943 41.1502 97.6816 42.7697 96.423 44.3848" fill="#F8A264"/>
<path d="M105.37 44.004C105.231 43.4375 104.695 43.0354 104.13 42.894C103.564 42.7524 102.968 42.826 102.393 42.9192C100.372 43.2468 98.397 43.8077 96.4275 44.3671L97.7754 44.8462C99.2328 45.5465 100.83 45.9553 102.444 46.0415C103.137 46.0785 103.864 46.0491 104.474 45.7181C105.083 45.3869 105.535 44.6779 105.37 44.004Z" fill="#F8A264"/>
<path d="M96.423 44.3848C97.0922 43.426 98.0745 42.1862 98.7703 41.2043C99.4661 40.2226 100.352 39.3495 101.47 38.9052C102.035 38.6809 102.708 38.6056 103.227 38.9203C104.029 39.4058 104.084 40.6266 103.583 41.4196C103.083 42.2123 102.205 42.6731 101.36 43.0789C99.7142 43.869 98.2475 44.3276 96.423 44.3848Z" fill="#F8A264"/>
<path d="M99.6366 44.6875C99.5758 44.5589 99.5083 44.4094 99.1236 44.3181C98.3584 44.1364 98.0439 44.095 97.3714 44.0339C97.9176 43.9925 98.5188 43.7245 99.0245 43.5131C99.2426 43.4221 99.5447 43.006 99.4969 42.7742C99.447 42.534 99.1284 42.4788 98.8845 42.5071C98.131 42.5947 97.4167 42.9825 96.9326 43.5663C97.2591 42.9559 97.3574 42.2265 97.2036 41.5512C97.1661 41.3857 97.0928 41.2012 96.9312 41.1491C96.8007 41.1068 96.6543 41.1726 96.5644 41.2762C96.4745 41.3798 96.4306 41.5145 96.3942 41.6466C96.1491 42.5373 96.1648 43.4977 96.4384 44.38C97.3652 44.8863 97.5889 45.0554 99.167 45.4124C99.2813 45.4381 99.4557 45.402 99.5951 45.2069C99.6775 45.0912 99.6973 44.8157 99.6366 44.6875Z" fill="#3D907E"/>
<path d="M82.8786 61.3435C83.1496 59.8323 84.5692 52.9833 91.6874 47.3275C93.8784 45.5865 96.6843 43.9564 97.4537 44.0594" stroke="#3D907E" stroke-width="1.33333" stroke-miterlimit="10" stroke-linecap="round" stroke-linejoin="round"/>
<path d="M92.8001 46.4487C94.5759 50.5423 99.2729 53.0779 103.884 52.4328C102.54 48.1908 97.7035 45.7288 92.8001 46.4487Z" fill="#3D907E"/>
<path d="M54.1097 55.0906C51.1151 47.77 46.2865 38.4995 42.005 31.8492" stroke="#3D907E" stroke-width="1.33333" stroke-miterlimit="10" stroke-linecap="round" stroke-linejoin="round"/>
<path d="M46.4929 39.6315L41.0721 37.1633" stroke="#3D907E" stroke-width="1.33333" stroke-miterlimit="10" stroke-linecap="round" stroke-linejoin="round"/>
<path d="M49.0526 36.6461C48.86 39.9924 48.7914 39.2571 48.1634 42.5496" stroke="#3D907E" stroke-width="1.33333" stroke-miterlimit="10" stroke-linecap="round" stroke-linejoin="round"/>
<path d="M40.4897 30.7359C40.0025 31.3611 40.1145 32.2627 40.7397 32.75C41.3647 33.2369 42.2666 33.1252 42.7535 32.4999C43.2407 31.8747 43.1287 30.9731 42.5037 30.4859C41.8785 29.9989 40.9769 30.1107 40.4897 30.7359Z" fill="#F8A264"/>
<path d="M47.7571 35.8347C47.2408 36.4972 47.3595 37.4528 48.022 37.9688C48.6844 38.4852 49.6401 38.3664 50.1564 37.704C50.6727 37.0415 50.554 36.0858 49.8915 35.5698C49.229 35.0535 48.2734 35.1719 47.7571 35.8347Z" fill="#F8A264"/>
<path d="M40.1461 35.9629C39.5887 36.3748 39.4705 37.1608 39.8827 37.7185C40.2948 38.276 41.0808 38.3939 41.6382 37.982C42.1957 37.5698 42.3139 36.7839 41.9017 36.2264C41.4896 35.6686 40.7036 35.5508 40.1461 35.9629Z" fill="#F8A264"/>
<path d="M99.1737 101.225C106.408 98.028 115.541 92.9432 122.069 88.478" stroke="#3D907E" stroke-width="1.33333" stroke-miterlimit="10" stroke-linecap="round" stroke-linejoin="round"/>
<path d="M114.415 93.1809L116.731 87.6938" stroke="#3D907E" stroke-width="1.33333" stroke-miterlimit="10" stroke-linecap="round" stroke-linejoin="round"/>
<path d="M117.47 95.6567C114.12 95.5573 114.853 95.4683 111.544 94.932" stroke="#3D907E" stroke-width="1.33333" stroke-miterlimit="10" stroke-linecap="round" stroke-linejoin="round"/>
<path d="M123.139 86.9325C122.501 86.4629 121.603 86.5998 121.133 87.2385C120.664 87.8769 120.801 88.7751 121.439 89.2447C122.078 89.7143 122.976 89.5771 123.446 88.9387C123.915 88.3003 123.778 87.402 123.139 86.9325Z" fill="#F8A264"/>
<path d="M118.245 94.339C117.569 93.8414 116.617 93.9868 116.119 94.6632C115.622 95.34 115.767 96.2917 116.443 96.7896C117.12 97.2871 118.072 97.1418 118.569 96.4651C119.067 95.7886 118.922 94.8366 118.245 94.339Z" fill="#F8A264"/>
<path d="M117.905 86.7345C117.478 86.1888 116.689 86.0927 116.143 86.52C115.597 86.9476 115.501 87.7366 115.928 88.2823C116.356 88.8283 117.145 88.9244 117.691 88.4968C118.236 88.0695 118.332 87.2805 117.905 86.7345Z" fill="#F8A264"/>
<path d="M41.8748 91.3175C35.9218 86.1098 27.4565 79.9781 20.6524 75.9452" stroke="#3D907E" stroke-width="1.33333" stroke-miterlimit="10" stroke-linecap="round" stroke-linejoin="round"/>
<path d="M28.1473 80.8984L22.1953 81.1154" stroke="#3D907E" stroke-width="1.33333" stroke-miterlimit="10" stroke-linecap="round" stroke-linejoin="round"/>
<path d="M18.7992 75.6274C18.6432 76.4044 19.1466 77.161 19.9236 77.317C20.7007 77.4729 21.4571 76.9695 21.6131 76.1925C21.7691 75.4155 21.2657 74.6592 20.4887 74.5032C19.7117 74.347 18.9552 74.8504 18.7992 75.6274Z" fill="#F8A264"/>
<path d="M20.83 80.456C20.5156 81.074 20.7617 81.8297 21.3796 82.1442C21.9976 82.4583 22.7533 82.2122 23.0677 81.5945C23.3821 80.9766 23.1359 80.2208 22.518 79.9064C21.9001 79.592 21.1443 79.8381 20.83 80.456Z" fill="#F8A264"/>
<path d="M66.2522 20.6668C65.0252 20.1889 63.8941 19.4662 62.9449 18.5534C62.5375 18.1617 62.1511 17.7131 62.0091 17.166C61.8669 16.6191 62.0374 15.9558 62.5305 15.6795C62.9446 15.4471 63.4816 15.5423 63.8806 15.8001C64.2793 16.0583 64.5666 16.4534 64.8312 16.8479C65.7602 18.2325 66.5247 19.7196 67.2868 21.2025" fill="#F8A264"/>
<path d="M70.07 14.4612C69.6038 14.3699 69.1233 14.6281 68.8251 14.9977C68.5267 15.3673 68.3771 15.8324 68.2489 16.2896C67.7987 17.8951 67.5366 19.5466 67.2753 21.1932L68.0913 20.3614C69.1077 19.5242 69.9569 18.4845 70.5735 17.3208C70.8381 16.8216 71.0651 16.2748 71.0293 15.7108C70.9937 15.1469 70.6247 14.5701 70.07 14.4612Z" fill="#F8A264"/>
<path d="M67.2868 21.2025C66.8077 20.3795 66.2278 19.2293 65.7409 18.3789C65.2537 17.5283 64.9121 16.5749 64.9667 15.5966C64.9944 15.1027 65.1694 14.5796 65.5796 14.3035C66.2133 13.8771 67.1342 14.2545 67.5483 14.896C67.9624 15.5378 68.0025 16.3439 68.0129 17.1077C68.033 18.5943 67.8695 19.8347 67.2868 21.2025Z" fill="#F8A264"/>
<path d="M68.6112 18.9319C68.4956 18.9328 68.362 18.9311 68.1626 19.1842C67.7662 19.6874 67.6281 19.9055 67.3526 20.3815C67.5091 19.9637 67.517 19.4275 67.534 18.9818C67.5413 18.7894 67.3372 18.4235 67.1496 18.3798C66.955 18.3344 66.8052 18.5509 66.7428 18.7407C66.5493 19.3273 66.591 19.9881 66.8567 20.5456C66.5176 20.0953 66.0122 19.7728 65.4606 19.6552C65.3254 19.6263 65.1638 19.6171 65.07 19.7187C64.9941 19.8005 64.9927 19.9315 65.0384 20.0332C65.0843 20.1351 65.1686 20.2138 65.254 20.286C65.828 20.7721 66.5431 21.0896 67.2885 21.1896C67.9801 20.678 68.1817 20.5708 68.9858 19.5269C69.0441 19.4516 69.0771 19.3099 68.9805 19.1403C68.9234 19.0397 68.7268 18.9308 68.6112 18.9319Z" fill="#3D907E"/>
<path d="M61.4421 46.8196C60.6461 37.7793 57.5445 29.2295 52.6274 21.9775" stroke="#3D907E" stroke-miterlimit="10"/>
<path d="M50.2132 18.6959C50.6909 26.8988 54.6854 27.4067 57.0379 30.4192C58.3217 32.093 57.7419 32.3778 57.4294 30.2478C56.9117 26.9172 57.974 21.2167 50.2132 18.6959Z" fill="#3D907E"/>
<path d="M59.0052 34.9742C58.0821 32.0538 53.6606 27.634 48.0634 28.6118C48.2233 29.6394 49.3615 30.6286 50.3314 31.1472C54.7134 33.5034 57.8777 31.7593 59.0052 34.9742Z" fill="#3D907E"/>
<path d="M59.0052 34.9742C58.0168 31.8671 58.1874 25.1896 60.8429 21.1333C62.4579 22.5716 63.2954 26.8811 59.4759 31.7671C58.6208 32.8507 58.8504 34.5327 59.0052 34.9742Z" fill="#3D907E"/>
<path d="M60.5894 40.9192C59.874 37.4718 55.7779 33.0078 50.4596 33.3222C50.4644 33.9811 51.0179 34.8074 51.4693 35.299C54.6666 38.6464 59.832 37.4618 60.5894 40.9192Z" fill="#3D907E"/>
<path d="M60.5895 40.9192C59.9768 37.9924 60.8292 31.2158 64.0265 27.3902C64.4059 27.8384 64.8909 28.9288 64.9494 30.1706C65.3282 35.805 59.8105 37.3643 60.5895 40.9192Z" fill="#3D907E"/>
<path d="M49.3856 86.8907C44.0434 80.3975 37.1958 75.4863 29.64 72.518" stroke="#3D907E" stroke-miterlimit="10"/>
<path d="M26.076 71.274C30.7364 77.2937 34.0555 75.5905 37.4315 76.6612C39.2893 77.2683 38.995 77.7896 37.6409 76.3252C35.5012 74.0505 33.3281 69.1371 26.076 71.274Z" fill="#3D907E"/>
<path d="M41.3204 79.1126C39.0855 77.3637 33.3914 76.3006 29.6251 79.9792C30.2854 80.6809 31.6733 80.841 32.6864 80.7293C37.2697 80.236 38.775 77.2456 41.3204 79.1126Z" fill="#3D907E"/>
<path d="M41.3204 79.1126C38.9376 77.2551 35.5715 72.0619 35.4771 67.5707C37.4648 67.8244 40.3614 70.6799 40.0008 76.4148C39.9143 77.6908 40.9707 78.8561 41.3204 79.1126Z" fill="#3D907E"/>
<path d="M45.6445 82.8271C43.2925 80.5666 37.8238 79.2994 33.9234 82.3248C34.272 82.826 35.128 83.1676 35.7302 83.307C39.9272 84.1912 43.255 80.5809 45.6445 82.8271Z" fill="#3D907E"/>
<path d="M45.6445 82.8271C43.6433 80.9108 40.7464 75.2847 41.1872 70.6863C41.7116 70.8302 42.6535 71.4095 43.3485 72.3282C46.5884 76.4366 43.1875 80.5179 45.6445 82.8271Z" fill="#3D907E"/>
<path d="M97.5405 87.6162C102.883 81.123 109.731 76.2121 117.286 73.2438" stroke="#3D907E" stroke-miterlimit="10"/>
<path d="M120.85 71.9995C116.19 78.0192 112.871 76.3159 109.495 77.3867C107.637 77.9937 107.931 78.5151 109.285 77.0507C111.425 74.7759 113.598 69.8625 120.85 71.9995Z" fill="#3D907E"/>
<path d="M105.606 79.8381C107.841 78.0892 113.535 77.0263 117.301 80.7047C116.641 81.4064 115.253 81.5665 114.24 81.4548C109.657 80.9614 108.151 77.971 105.606 79.8381Z" fill="#3D907E"/>
<path d="M105.606 79.8381C107.989 77.9806 111.355 72.7874 111.449 68.2962C109.461 68.5501 106.565 71.4053 106.926 77.1403C107.012 78.4162 105.956 79.5816 105.606 79.8381Z" fill="#3D907E"/>
<path d="M101.282 83.5526C103.634 81.2921 109.103 80.0249 113.003 83.0502C112.654 83.5514 111.798 83.893 111.196 84.0325C106.999 84.9167 103.671 81.3064 101.282 83.5526Z" fill="#3D907E"/>
<path d="M101.282 83.5526C103.283 81.6362 106.18 76.0102 105.739 71.4118C105.215 71.5557 104.273 72.1353 103.578 73.0537C100.338 77.1621 103.739 81.2434 101.282 83.5526Z" fill="#3D907E"/>
<path d="M51.2666 43.9978C50.5263 46.2134 50.4148 48.1726 51.0177 48.3742C51.6205 48.5755 52.7094 46.9428 53.4498 44.7275C54.1904 42.5121 54.3018 40.553 53.699 40.3514C53.0961 40.1498 52.0072 41.7824 51.2666 43.9978Z" fill="white"/>
<path d="M53.4215 44.7087C51.6726 46.2571 50.5963 47.8982 51.0177 48.3742C51.4391 48.8499 53.1983 47.9805 54.9472 46.4321C56.696 44.8837 57.7724 43.2429 57.351 42.7669C56.9296 42.2909 55.1703 43.1603 53.4215 44.7087Z" fill="white"/>
<path d="M54.9321 46.4016C52.6431 46.8681 50.8906 47.7512 51.0177 48.3742C51.1445 48.9969 53.1028 49.1238 55.3918 48.6573C57.6805 48.1908 59.4331 47.3077 59.3062 46.685C59.1791 46.062 57.2208 45.9351 54.9321 46.4016Z" fill="white"/>
<path d="M55.3938 48.6231C53.1784 47.8828 51.219 47.7711 51.0177 48.3742C50.8161 48.977 52.4488 50.066 54.6641 50.8063C56.8795 51.5469 58.8389 51.6583 59.0402 51.0555C59.2418 50.4526 57.6092 49.3637 55.3938 48.6231Z" fill="white"/>
<path d="M54.6829 50.778C53.1345 49.0288 51.4934 47.9528 51.0177 48.3742C50.5417 48.7953 51.4111 50.5548 52.9595 52.3037C54.5079 54.0526 56.149 55.1289 56.6247 54.7075C57.1007 54.2861 56.2313 52.5269 54.6829 50.778Z" fill="white"/>
<path d="M52.99 52.2886C52.5235 49.9996 51.6404 48.2471 51.0177 48.3742C50.3947 48.501 50.2681 50.4594 50.7343 52.7481C51.2008 55.0371 52.0839 56.7896 52.7069 56.6627C53.3296 56.5356 53.4565 54.5773 52.99 52.2886Z" fill="white"/>
<path d="M50.7685 52.7503C51.5088 50.5349 51.6205 48.5755 51.0177 48.3742C50.4148 48.1726 49.3256 49.8053 48.5853 52.0206C47.845 54.236 47.7333 56.1954 48.3361 56.3967C48.939 56.5983 50.0282 54.9657 50.7685 52.7503Z" fill="white"/>
<path d="M48.6139 52.0394C50.3628 50.491 51.4391 48.8499 51.0177 48.3742C50.5963 47.8982 48.8368 48.7676 47.0879 50.316C45.339 51.8644 44.2627 53.5055 44.6841 53.9812C45.1055 54.4572 46.8647 53.5878 48.6139 52.0394Z" fill="white"/>
<path d="M47.1033 50.3465C49.392 49.88 51.1445 48.9969 51.0177 48.3742C50.8906 47.7512 48.9322 47.6244 46.6435 48.0908C44.3545 48.5573 42.602 49.4404 42.7291 50.0634C42.8559 50.6862 44.8143 50.813 47.1033 50.3465Z" fill="white"/>
<path d="M46.6413 48.125C48.8569 48.8653 50.8161 48.977 51.0177 48.3742C51.219 47.7711 49.5866 46.6821 47.371 45.9418C45.1556 45.2015 43.1964 45.0898 42.9948 45.6926C42.7935 46.2955 44.4259 47.3847 46.6413 48.125Z" fill="white"/>
<path d="M47.3522 45.9701C48.9006 47.7193 50.5417 48.7953 51.0177 48.3742C51.4934 47.9528 50.624 46.1933 49.0756 44.4444C47.5275 42.6955 45.8864 41.6192 45.4104 42.0406C44.9344 42.462 45.8038 44.2212 47.3522 45.9701Z" fill="white"/>
<path d="M49.0454 44.4595C49.5116 46.7485 50.3947 48.501 51.0177 48.3742C51.6404 48.2471 51.7673 46.2888 51.3008 44C50.8343 41.711 49.9512 39.9585 49.3284 40.0856C48.7054 40.2125 48.5789 42.1708 49.0454 44.4595Z" fill="white"/>
<path d="M49.525 48.2832C49.4749 49.1075 50.1026 49.8165 50.9267 49.8666C51.751 49.9167 52.4599 49.2892 52.5101 48.4649C52.5602 47.6406 51.9327 46.9316 51.1084 46.8815C50.2841 46.8314 49.5751 47.4589 49.525 48.2832Z" fill="#F8A264"/>
<path d="M29.2311 86.5595C28.4908 88.7748 28.3794 90.7343 28.9822 90.9356C29.5851 91.1372 30.674 89.5045 31.4143 87.2892C32.1549 85.0738 32.2663 83.1144 31.6635 82.913C31.0607 82.7114 29.9717 84.3441 29.2311 86.5595Z" fill="white"/>
<path d="M31.386 87.2704C29.6372 88.8188 28.5608 90.4596 28.9822 90.9356C29.4036 91.4116 31.1629 90.5422 32.9118 88.9938C34.6606 87.4454 35.737 85.8043 35.3156 85.3283C34.8942 84.8526 33.1349 85.722 31.386 87.2704Z" fill="white"/>
<path d="M32.8966 88.9633C30.6076 89.4298 28.8551 90.3129 28.9822 90.9356C29.1091 91.5586 31.0674 91.6852 33.3564 91.2187C35.6451 90.7522 37.3976 89.8694 37.2708 89.2464C37.1437 88.6236 35.1854 88.4968 32.8966 88.9633Z" fill="white"/>
<path d="M33.3583 91.1848C31.143 90.4442 29.1835 90.3327 28.9822 90.9356C28.7806 91.5384 30.4133 92.6274 32.6287 93.368C34.844 94.1083 36.8035 94.22 37.0048 93.6169C37.2064 93.014 35.5737 91.9251 33.3583 91.1848Z" fill="white"/>
<path d="M32.6474 93.3394C31.099 91.5905 29.4579 90.5142 28.9822 90.9356C28.5062 91.357 29.3756 93.1163 30.924 94.8654C32.4724 96.6143 34.1135 97.6906 34.5892 97.2692C35.0652 96.8478 34.1958 95.0883 32.6474 93.3394Z" fill="white"/>
<path d="M30.9546 94.85C30.4881 92.5613 29.605 90.8088 28.9822 90.9356C28.3592 91.0624 28.2324 93.0211 28.6989 95.3098C29.1654 97.5985 30.0485 99.3513 30.6715 99.2242C31.2942 99.0973 31.421 97.139 30.9546 94.85Z" fill="white"/>
<path d="M28.733 95.3117C29.4734 93.0963 29.5851 91.1372 28.9822 90.9356C28.3794 90.7343 27.2904 92.3667 26.5499 94.582C25.8095 96.7977 25.6979 98.7568 26.3008 98.9584C26.9036 99.1598 27.9926 97.5273 28.733 95.3117Z" fill="white"/>
<path d="M26.5784 94.6011C28.3273 93.0527 29.4036 91.4116 28.9822 90.9356C28.5608 90.4596 26.8015 91.329 25.0524 92.8774C23.3036 94.4258 22.2273 96.0669 22.6487 96.5429C23.07 97.0189 24.8294 96.1495 26.5784 94.6011Z" fill="white"/>
<path d="M25.0676 92.9079C27.3566 92.4414 29.1091 91.5586 28.9822 90.9356C28.8551 90.3129 26.8969 90.186 24.6081 90.6525C22.3192 91.119 20.5666 92.0021 20.6937 92.6248C20.8205 93.2478 22.7789 93.3744 25.0676 92.9079Z" fill="white"/>
<path d="M24.606 90.6867C26.8214 91.427 28.7807 91.5384 28.9823 90.9356C29.1836 90.3328 27.551 89.2438 25.3356 88.5035C23.1203 87.7629 21.1609 87.6515 20.9594 88.2543C20.758 88.8572 22.3905 89.9461 24.606 90.6867Z" fill="white"/>
<path d="M25.3168 88.5318C26.8652 90.2807 28.5062 91.357 28.9822 90.9356C29.458 90.5142 28.5886 88.7549 27.0403 87.0061C25.4919 85.2569 23.8508 84.1809 23.3749 84.6023C22.8989 85.0234 23.7684 86.7829 25.3168 88.5318Z" fill="white"/>
<path d="M27.0098 87.0212C27.4763 89.3099 28.3592 91.0624 28.9822 90.9356C29.6049 90.8088 29.7318 88.8505 29.2653 86.5615C28.7988 84.2727 27.9158 82.5202 27.2929 82.6471C26.6701 82.7742 26.5434 84.7325 27.0098 87.0212Z" fill="white"/>
<path d="M27.4896 90.8449C27.4394 91.6692 28.0672 92.3782 28.8912 92.4283C29.7155 92.4784 30.4245 91.8506 30.4746 91.0263C30.5247 90.2023 29.8973 89.4933 29.0729 89.4432C28.2486 89.3931 27.5397 90.0206 27.4896 90.8449Z" fill="#F8A264"/>
<path d="M39.3963 60.7326C38.1598 60.8471 36.9012 60.7146 35.7157 60.345C35.2072 60.1863 34.6923 59.971 34.3417 59.5697C33.9911 59.1682 33.8553 58.5371 34.1544 58.0961C34.4058 57.7254 34.8989 57.5792 35.3441 57.6288C35.7893 57.678 36.1981 57.8903 36.5876 58.1112C37.9548 58.8874 39.2266 59.8189 40.4944 60.7483" fill="#F8A264"/>
<path d="M39.9991 53.8896C39.5676 54.0092 39.2711 54.4295 39.1753 54.8671C39.0796 55.3045 39.1496 55.7597 39.2341 56.1996C39.5315 57.7433 40.007 59.2463 40.481 60.7451L40.8181 59.6996C41.3224 58.5651 41.6002 57.3303 41.6296 56.089C41.6422 55.5562 41.6032 54.9995 41.3353 54.5389C41.0673 54.0783 40.5126 53.7477 39.9991 53.8896Z" fill="#F8A264"/>
<path d="M40.4944 60.7482C39.7435 60.2563 38.7697 59.5305 38.0002 59.019C37.2308 58.5071 36.5409 57.8469 36.1743 56.9988C35.9893 56.5706 35.9162 56.0557 36.1461 55.65C36.5005 55.0231 37.4363 54.9531 38.0562 55.3196C38.6759 55.6861 39.0497 56.3492 39.3803 56.989C40.024 58.2338 40.4093 59.3491 40.4944 60.7482Z" fill="#F8A264"/>
<path d="M40.654 58.275C40.5569 58.3246 40.4435 58.3795 40.3822 58.6771C40.2601 59.2685 40.2354 59.5107 40.2038 60.0281C40.1596 59.6098 39.9403 59.1545 39.7667 58.7715C39.6917 58.606 39.3655 58.3834 39.1888 58.4257C39.0054 58.4693 38.9704 58.7152 38.9976 58.9014C39.0818 59.4779 39.3957 60.0175 39.8549 60.3759C39.3789 60.139 38.8167 60.0802 38.302 60.2132C38.1758 60.2459 38.0358 60.3064 37.9994 60.4316C37.9702 60.5327 38.0237 60.6435 38.1055 60.7102C38.187 60.7768 38.2914 60.8076 38.3936 60.8325C39.0827 61.0003 39.8196 60.9667 40.4905 60.7365C40.8582 60.0135 40.9828 59.8383 41.221 58.6189C41.2381 58.5307 41.2065 58.3974 41.0536 58.2949C40.9629 58.2344 40.7512 58.2255 40.654 58.275Z" fill="#3D907E"/>
<path d="M40.215 60.779C41.7483 64.7321 45.0492 67.8815 49.0737 69.2199C49.2879 69.291 49.3797 68.9531 49.1666 68.8822C45.2673 67.5858 42.0389 64.5184 40.5527 60.6861C40.4721 60.4783 40.1335 60.5687 40.215 60.779Z" fill="#3D907E"/>
<path d="M77.0857 101.245L43.6845 102.703C32.8838 103.803 22.6063 109.366 15.7801 117.808C29.3821 125.231 52.3636 127.523 67.8549 127.88C88.6259 128.36 106.595 125.572 125.693 114.381C112.531 103.071 94.152 98.1045 77.0857 101.245Z" fill="#3D907E"/>
<path d="M28.831 107.125C31.4356 111.866 34.0402 116.606 36.6444 121.347C36.6806 121.412 36.7702 121.45 36.8421 121.427C38.0808 121.04 39.3196 120.652 40.5583 120.264C43.5266 119.334 46.4951 118.405 49.4634 117.476C53.0404 116.356 56.6174 115.236 60.1944 114.116C63.2587 113.156 66.3231 112.197 69.3874 111.238C70.8115 110.792 72.2733 110.406 73.6758 109.895C73.7582 109.865 73.6151 109.885 73.6252 109.886C73.663 109.889 73.7036 109.899 73.7405 109.908C73.9391 109.952 74.1412 109.983 74.3409 110.021C75.1747 110.178 76.0085 110.336 76.8424 110.493C79.7717 111.046 82.7014 111.598 85.6307 112.151C89.3027 112.844 92.9743 113.536 96.6459 114.229C99.9384 114.85 103.231 115.471 106.523 116.092C108.312 116.43 110.1 116.767 111.889 117.105C111.973 117.12 112.057 117.136 112.142 117.152C112.226 117.168 112.342 117.13 112.357 117.03C112.832 113.978 113.307 110.926 113.782 107.873C113.849 107.445 113.915 107.016 113.982 106.588C114.017 106.367 113.679 106.272 113.645 106.495C113.17 109.547 112.695 112.599 112.22 115.651C112.153 116.08 112.086 116.509 112.02 116.937C112.091 116.896 112.163 116.855 112.235 116.815C110.966 116.575 109.697 116.336 108.429 116.097C105.392 115.524 102.355 114.951 99.318 114.378C95.6349 113.683 91.9517 112.988 88.2686 112.293C85.0511 111.687 81.8336 111.08 78.6162 110.473C77.0174 110.171 75.4144 109.797 73.8035 109.565C73.572 109.531 73.3827 109.62 73.1587 109.69C72.4234 109.92 71.6879 110.151 70.9526 110.381C68.1904 111.246 65.4282 112.111 62.666 112.976C59.0985 114.092 55.531 115.209 51.9635 116.326C48.7421 117.335 45.5204 118.344 42.299 119.352C40.532 119.905 38.7652 120.459 36.9984 121.012C36.9152 121.038 36.8323 121.064 36.7492 121.09C36.815 121.117 36.8808 121.143 36.9468 121.17C34.3423 116.43 31.7377 111.689 29.1332 106.949C29.0248 106.751 28.7224 106.928 28.831 107.125Z" fill="#AAD0D5"/>
<path d="M72.4475 114.23C73.6377 118.578 74.4707 123.019 74.9328 127.503C74.9557 127.725 75.306 127.727 75.2828 127.503C74.8177 122.987 73.9835 118.515 72.7849 114.137C72.7255 113.92 72.3878 114.012 72.4475 114.23Z" fill="#AAD0D5"/>
<path d="M15.4314 118.292C22.3649 119.194 29.2793 120.236 36.2104 121.156C43.0253 122.061 49.8562 122.788 56.7106 123.316C59.9068 123.562 63.1061 123.771 66.3073 123.941C67.798 124.021 69.2891 124.091 70.7803 124.153C72.1999 124.212 73.6503 124.348 75.0691 124.239C76.272 124.147 77.4768 123.85 78.6592 123.622C83.8762 122.617 89.0934 121.612 94.3104 120.606C100.962 119.325 107.614 118.043 114.265 116.761C116.769 116.278 119.272 115.796 121.776 115.314C123.038 115.07 124.324 114.878 125.575 114.581C125.629 114.569 125.685 114.56 125.739 114.55C125.96 114.507 125.866 114.17 125.646 114.212C122.513 114.816 119.38 115.42 116.247 116.024C109.75 117.276 103.254 118.528 96.757 119.78C91.129 120.864 85.5013 121.949 79.8733 123.033C78.708 123.258 77.5429 123.486 76.377 123.707C74.4192 124.079 72.3948 123.872 70.4166 123.788C67.413 123.661 64.4112 123.497 61.4112 123.301C54.5849 122.854 47.7685 122.247 40.9777 121.416C34.053 120.569 27.1526 119.537 20.2418 118.587C18.639 118.366 17.0357 118.15 15.4314 117.942C15.2087 117.912 15.2108 118.263 15.4314 118.292Z" fill="#1B1C1D"/>
<path d="M75.1873 36.3073C74.1633 35.5897 69.5892 32.1947 67.8482 24.9981C67.3123 22.7831 67.0689 20.1513 67.4086 19.6182" stroke="#3D907E" stroke-width="1.33333" stroke-miterlimit="10" stroke-linecap="round" stroke-linejoin="round"/>
<path d="M92.5456 42.2884C92.3398 39.2681 94.1282 36.5053 94.8108 33.5561C95.9344 28.7037 93.1176 22.8519 88.9218 20.1681L87.82 19.4729C85.4986 18.0088 82.78 17.2469 80.0416 17.4278C73.1438 17.883 69.459 23.5539 67.3134 27.1004C65.9257 29.3944 64.2191 32.6197 62.5596 34.1483C60.5872 35.9643 58.3106 37.961 55.6352 38.1338C55.7676 39.4968 56.7664 40.7364 58.07 41.1555C59.3737 41.5747 60.9078 41.1497 61.8097 40.1193C60.9652 41.0472 60.1208 41.9751 59.2763 42.903C61.3189 45.6221 64.2944 47.5258 67.4467 48.8021C70.5992 50.0783 73.9508 50.7735 77.2811 51.4629C80.2474 52.0767 83.2138 52.6904 86.1801 53.3045C87.3471 53.5458 88.5951 53.7813 89.7008 53.3367C90.8062 52.892 91.5978 51.4724 90.9541 50.4695C91.5684 51.401 91.9083 52.5112 91.9206 53.627C93.0698 53.5937 94.2189 53.5607 95.368 53.5276C96.4127 49.7415 92.8124 46.207 92.5456 42.2884Z" fill="#1B1C1D"/>
<path d="M78.7819 42.6924C78.6744 42.9346 76.7248 51.8176 76.7248 51.8176L65.473 46.8168L70.4357 35.6502L78.7819 42.6924Z" fill="#F9AD8E"/>
<path d="M78.3474 45.6843C78.3474 45.6843 84.9427 47.4726 87.9962 40.6224C89.0403 38.2802 90.1236 35.7896 91.595 31.2234C93.1773 26.3141 90.5187 22.815 85.4582 20.6884L84.9551 20.477C79.4083 18.496 74.7409 19.9069 73.0738 25.1863L71.5235 30.2966C71.5235 30.2966 66.3827 40.6745 78.3378 45.6884" fill="#F9AD8E"/>
<path d="M79.3728 30.3349C80.222 30.1974 81.1023 30.5679 81.6279 31.2404C81.6864 31.3155 81.8135 31.3009 81.8754 31.2404C81.9496 31.1676 81.9331 31.0671 81.8754 30.9929C81.2683 30.2159 80.2463 29.841 79.2798 29.9972C79.1857 30.0126 79.1353 30.1283 79.1577 30.2125C79.1838 30.3119 79.2801 30.3497 79.3728 30.3349Z" fill="#1B1C1D"/>
<path d="M86.7846 33.2525C87.6338 33.1153 88.5142 33.4858 89.0394 34.1583C89.0982 34.2334 89.2254 34.2185 89.287 34.1583C89.3614 34.0855 89.3449 33.9847 89.287 33.9108C88.6799 33.1338 87.6582 32.7586 86.6913 32.9151C86.5975 32.9303 86.5471 33.0462 86.5693 33.1305C86.5956 33.2299 86.6916 33.2677 86.7846 33.2525Z" fill="#1B1C1D"/>
<path d="M88.1566 30.6821C88.8521 30.8504 89.5171 31.143 90.111 31.5423" stroke="#1B1C1D" stroke-width="4" stroke-miterlimit="10" stroke-linecap="round" stroke-linejoin="round"/>
<path d="M81.055 27.8706C81.72 28.0916 82.3732 28.4046 82.9744 28.791" stroke="#1B1C1D" stroke-width="4" stroke-miterlimit="10" stroke-linecap="round" stroke-linejoin="round"/>
<path d="M72.0375 30.9672C74.4719 32.5318 77.3287 27.8189 82.8413 27.6321C85.8155 27.531 89.4076 24.8738 91.1548 22.381C91.1548 22.381 86.6437 16.4114 80.2536 17.6728C73.8634 18.9342 70.7904 25.0432 70.7904 25.0432L72.0375 30.9672Z" fill="#1B1C1D"/>
<path d="M73.1379 30.31C72.5301 29.514 71.6374 28.8739 70.6387 28.8996C69.615 28.9257 68.6398 29.7046 68.2788 30.7121C67.9182 31.7195 68.1562 32.8896 68.8176 33.672C69.4786 34.4543 70.5225 34.846 71.5456 34.7715L73.1379 30.31Z" fill="#F9AD8E"/>
<path d="M70.8727 30.7863C70.6322 30.58 70.2542 30.5769 69.9851 30.7446C69.7161 30.9123 69.5559 31.2248 69.5296 31.5406C69.503 31.8565 69.5985 32.1737 69.753 32.4506C69.886 32.6889 70.0756 32.9115 70.3326 33.0028C70.642 33.1128 71.0088 33.0008 71.2281 32.7567C71.4476 32.5125 71.5223 32.1555 71.4512 31.8352C71.3804 31.5146 71.174 31.2324 70.9091 31.0383" fill="#F79988"/>
<path d="M71.5305 32.2765C71.6615 31.5599 71.2018 30.7538 70.5418 30.4657C70.3167 30.3674 70.0739 30.3271 69.8286 30.3408C69.6942 30.3486 69.6934 30.5587 69.8286 30.5508C70.1979 30.5298 70.5519 30.6474 70.8249 30.8997C71.0685 31.1248 71.2376 31.4275 71.3098 31.7506C71.344 31.9035 71.3563 32.0656 71.328 32.2207C71.3037 32.3529 71.5061 32.4095 71.5305 32.2765Z" fill="#F35C61"/>
<path d="M78.4014 45.7064C77.0938 45.1105 75.4731 44.014 74.6704 42.1616C74.6704 42.1616 74.4397 45.803 77.7011 47.2819L78.4014 45.7064Z" fill="#F35C61"/>
<path d="M84.3618 32.6953C84.0367 33.4284 83.7071 34.1684 83.4669 34.935C83.3546 35.2923 83.256 35.6698 83.2664 36.0475C83.2734 36.3101 83.3426 36.5618 83.4036 36.8155C83.4568 37.0367 83.517 37.2728 83.5139 37.5007C83.5038 38.1996 82.6549 38.1497 82.1691 38.0957C81.9453 38.0708 81.9473 38.4208 82.1691 38.4457C82.7977 38.5157 83.7077 38.477 83.8463 37.6849C83.9096 37.3237 83.7925 36.932 83.7057 36.58C83.5713 36.0352 83.6363 35.5634 83.8043 35.028C84.0358 34.2902 84.3511 33.5779 84.6639 32.872C84.7543 32.6679 84.453 32.4895 84.3618 32.6953Z" fill="#1B1C1D"/>
<path d="M78.4577 37.3246C78.8555 37.3198 79.268 37.3198 79.6306 37.4833C79.9935 37.6468 80.2931 38.0212 80.2385 38.4154C80.1996 38.698 79.996 38.9256 79.8017 39.1342C79.6631 39.2829 79.5155 39.4374 79.3212 39.4968C79.0045 39.5931 78.6604 39.398 78.4686 39.1286C78.1421 38.67 78.1751 37.9893 78.5445 37.5645" fill="#F35C61"/>
<path d="M78.0852 36.8018C78.1359 37.9106 78.8471 38.9097 79.8675 39.3367C79.9551 39.3736 80.059 39.2972 80.0825 39.2146C80.1114 39.1141 80.0472 39.0357 79.9604 38.9993C79.0913 38.6353 78.4781 37.7395 78.4353 36.8018C78.4249 36.5775 78.0749 36.5764 78.0852 36.8018Z" fill="#1B1C1D"/>
<path d="M75.9581 34.4689C75.6288 35.2097 75.9626 36.0769 76.7032 36.4062C77.4438 36.7354 78.3112 36.4017 78.6405 35.6611C78.9695 34.9202 78.636 34.053 77.8954 33.7238C77.1546 33.3945 76.2874 33.7283 75.9581 34.4689Z" fill="#F79988"/>
<path d="M87.3768 35.9623C87.2525 36.3258 86.8652 36.5268 86.5121 36.412C86.1599 36.2975 85.9743 35.9108 86.0991 35.5474C86.2237 35.1842 86.611 34.9826 86.9632 35.0969C87.3163 35.2117 87.5017 35.5992 87.3768 35.9623Z" fill="#1B1C1D"/>
<path d="M81.0001 33.2007C80.8755 33.5642 80.4885 33.7652 80.1354 33.6504C79.7832 33.5359 79.5975 33.1492 79.7221 32.7858C79.847 32.4223 80.234 32.221 80.5865 32.3352C80.9393 32.45 81.1247 32.8376 81.0001 33.2007Z" fill="#1B1C1D"/>
<path d="M90.8891 22.8945C93.9789 25.4114 95.6861 29.4272 95.4755 33.3959C95.4217 34.4092 95.2347 35.4069 94.9287 36.3737C94.5708 37.5041 94.0892 38.5935 93.7865 39.7413C93.5012 40.8226 93.4237 41.9216 93.6563 43.0206C93.8887 44.1196 94.3633 45.1495 94.8321 46.1636C95.8 48.258 96.9819 51.0012 95.4341 53.1267C95.3013 53.3089 95.6048 53.4839 95.7364 53.3033C96.9948 51.5755 96.5372 49.2481 95.7743 47.4144C94.8396 45.1685 93.4981 43.0271 93.9739 40.4933C94.204 39.2669 94.7047 38.115 95.109 36.9407C95.4433 35.9697 95.6816 34.979 95.7829 33.9562C95.9812 31.9561 95.6869 29.9071 94.9735 28.0303C94.1794 25.9417 92.8721 24.0607 91.1366 22.647C90.9633 22.5059 90.7141 22.752 90.8891 22.8945Z" fill="#1B1C1D"/>
<path d="M55.4266 37.0236C57.2914 36.8374 59.0976 36.2351 60.6959 35.254C62.3412 34.2437 63.66 32.8611 64.7307 31.2645C65.8507 29.5949 66.7307 27.778 67.8653 26.1176C68.9598 24.5162 70.3279 23.1062 71.8959 21.9641C73.6327 20.699 75.5927 19.7655 77.6706 19.2201C77.8884 19.1629 77.796 18.825 77.5776 18.8824C74.011 19.8187 70.7627 21.8985 68.4387 24.7646C65.938 27.8483 64.7164 31.8679 61.4496 34.3196C59.7008 35.632 57.6024 36.4563 55.4266 36.6736C55.2045 36.6957 55.2023 37.046 55.4266 37.0236Z" fill="#1B1C1D"/>
<path d="M56.0826 38.7282C58.0023 40.4524 60.8927 40.7106 63.0512 39.2711C64.0875 38.5801 64.8275 37.5936 65.2806 36.44C65.7669 35.2027 65.9386 33.8741 66.2278 32.5839C66.521 31.2768 66.9575 30.0042 67.8647 28.9892C68.7207 28.0319 69.8533 27.356 71.0486 26.9086C73.9457 25.8241 77.0803 26.1134 80.1105 25.9697C83.4881 25.8096 86.7703 24.9001 89.7176 23.2333C89.9136 23.1224 89.7375 22.82 89.5409 22.9312C86.9433 24.4001 84.0425 25.3103 81.0667 25.5584C78.0727 25.8079 74.998 25.445 72.0625 26.2203C69.7774 26.8237 67.5704 28.1308 66.5649 30.3568C65.5141 32.6833 65.7717 35.5155 64.2507 37.6429C63.4152 38.8111 62.0872 39.6203 60.6651 39.8238C59.108 40.0464 57.4952 39.5273 56.3301 38.4807C56.163 38.3306 55.9146 38.5773 56.0826 38.7282Z" fill="#372C2E"/>
<path d="M90.3893 23.3909C91.756 24.596 92.6688 26.2609 92.9421 28.0641C93.2266 29.9423 92.7027 31.7937 92.0125 33.5252C91.3161 35.2722 90.4534 36.9569 89.9604 38.7792C89.4653 40.6092 89.2976 42.5292 89.453 44.4178C89.6235 46.4881 90.1788 48.5094 91.0952 50.3737C91.1946 50.5758 91.4964 50.3986 91.3973 50.197C89.6666 46.676 89.2758 42.5376 90.3297 38.7565C91.3133 35.2287 93.8165 31.9536 93.3016 28.1268C93.044 26.2116 92.0858 24.421 90.6368 23.1437C90.4686 22.995 90.2199 23.2417 90.3893 23.3909Z" fill="#372C2E"/>
<path d="M88.0359 118.112C89.4774 117.612 91.2775 116.731 91.315 115.206C91.3525 113.681 90.6287 112.212 89.6123 111.074C88.5959 109.936 87.3021 109.086 85.9989 108.293C84.6577 107.476 83.204 106.611 82.579 105.17C82.1781 104.246 82.4007 102.481 81.8925 101.611C81.3868 100.745 80.4723 100.056 79.2325 99.9429C78.2334 99.8522 77.0109 99.7169 76.0088 99.7626C74.0508 99.8516 72.3268 100.72 70.3746 100.895C70.145 100.915 69.8972 100.944 69.7292 101.102C69.5397 101.28 69.5094 101.565 69.491 101.824C69.3274 104.131 69.1636 106.439 68.9998 108.746C70.7428 109.502 72.0104 108.778 73.663 109.716C74.2244 110.034 74.6615 110.529 75.0767 111.023C76.715 112.973 79.116 114.964 81.0662 116.603C83.0164 118.241 85.5694 119.386 88.0819 118.968" fill="#F9AD8E"/>
<path d="M86.1644 118.871C86.0235 119.425 85.3524 119.657 84.7815 119.644C84.3931 119.635 83.9815 119.542 83.7119 119.263C83.5187 119.063 83.4209 118.792 83.2703 118.558C82.8475 117.902 78.6069 114.94 77.7266 113.871" fill="#F9AD8E"/>
<path d="M85.9955 118.824C85.8393 119.324 85.2513 119.478 84.7815 119.469C84.5166 119.463 84.2321 119.417 84.0047 119.274C83.7544 119.115 83.6419 118.852 83.5013 118.605C83.2891 118.231 82.9351 117.96 82.6092 117.688C81.5004 116.764 80.3348 115.909 79.2179 114.994C78.7452 114.607 78.2446 114.217 77.8503 113.747C77.7053 113.574 77.4589 113.823 77.6028 113.995C77.9889 114.455 78.4781 114.838 78.9407 115.217C79.5872 115.748 80.2485 116.26 80.9074 116.775C81.4875 117.229 82.0741 117.679 82.6299 118.163C82.7859 118.299 82.9584 118.438 83.0863 118.602C83.3347 118.921 83.4296 119.313 83.7838 119.549C84.5493 120.058 86.0261 119.898 86.3329 118.917C86.4004 118.702 86.0627 118.61 85.9955 118.824Z" fill="#F35C61"/>
<path d="M89.1494 118.112C88.8386 119.419 87.0699 119.218 86.2845 118.891C85.4988 118.563 84.9004 117.821 84.7462 116.983" fill="#F9AD8E"/>
<path d="M88.9806 118.065C88.7516 118.959 87.7341 119.048 86.9663 118.905C85.9387 118.713 85.1219 117.981 84.915 116.937C84.8713 116.716 84.5339 116.81 84.5776 117.03C84.8134 118.22 85.7864 119.068 86.9621 119.258C87.9024 119.41 89.0453 119.222 89.318 118.158C89.374 117.94 89.0366 117.847 88.9806 118.065Z" fill="#F35C61"/>
<path d="M90.7463 116.655C90.6682 117.326 90.0827 117.876 89.4205 118.008C88.7583 118.14 88.0552 117.894 87.5451 117.452C87.0346 117.009 86.702 116.39 86.5054 115.744" fill="#F9AD8E"/>
<path d="M90.5775 116.608C90.4425 117.578 89.4205 118.04 88.5371 117.795C87.556 117.523 86.9621 116.621 86.6743 115.698C86.6074 115.483 86.2694 115.575 86.3366 115.791C86.6732 116.87 87.4054 117.916 88.5746 118.165C89.5938 118.382 90.7614 117.803 90.9152 116.701C90.9457 116.481 90.6086 116.386 90.5775 116.608Z" fill="#F35C61"/>
<path d="M87.9925 109.693C89.2909 110.258 90.4257 111.194 91.2287 112.36C91.7481 113.115 92.139 114.022 92.0071 114.928C91.875 115.835 91.0677 116.68 90.1558 116.593C89.4045 116.521 88.8415 115.89 88.3993 115.278C87.9569 114.666 87.5053 113.988 86.7952 113.732" fill="#F9AD8E"/>
<path d="M87.9043 109.844C88.9854 110.325 89.9447 111.037 90.7004 111.949C91.4502 112.855 92.2325 114.216 91.6837 115.406C91.4625 115.885 91.0277 116.315 90.4921 116.407C89.8931 116.51 89.3715 116.141 88.984 115.726C88.2789 114.97 87.8615 113.965 86.8417 113.564C86.632 113.481 86.541 113.819 86.7487 113.901C87.7128 114.28 88.1219 115.349 88.809 116.049C89.4135 116.665 90.2611 117.001 91.0722 116.568C91.8725 116.141 92.2706 115.216 92.1981 114.339C92.1133 113.311 91.53 112.383 90.8759 111.616C90.1149 110.724 89.1509 110.018 88.0807 109.542C87.8769 109.451 87.6985 109.753 87.9043 109.844Z" fill="#F35C61"/>
<path d="M61.7988 93.352C56.2131 87.8707 49.5398 83.8547 42.4906 83.2826C39.3943 83.0315 36.1542 83.4943 33.502 85.5355C30.8498 87.5767 28.9276 91.4525 29.3278 95.3529C29.5999 98.007 30.891 100.368 32.5251 102.063C34.1592 103.758 36.1208 104.862 38.0962 105.807C43.5996 108.441 71.6007 114.036 77.4737 114.455L83.1241 104.724L61.7988 93.352Z" fill="#D94D56"/>
<path d="M36.8312 91.4909C45.1366 91.1053 53.2375 96.1831 61.9402 102.188L36.8312 91.4909Z" fill="#D94D56"/>
<path d="M36.8312 91.6658C43.8936 91.3584 50.4546 94.9183 56.236 98.5902C58.1361 99.797 59.999 101.061 61.8517 102.339C62.0376 102.467 62.2129 102.164 62.0284 102.037C58.7583 99.7813 55.4546 97.5526 51.966 95.6446C48.904 93.97 45.6627 92.5218 42.2358 91.7904C40.4606 91.4116 38.6456 91.2369 36.8312 91.3158C36.6069 91.3254 36.6058 91.6756 36.8312 91.6658Z" fill="#1B1C1D"/>
<path d="M48.8188 122.373C47.3774 121.874 45.5773 120.992 45.5398 119.467C45.5022 117.942 46.226 116.473 47.2424 115.335C48.2591 114.197 49.5527 113.347 50.8558 112.554C52.197 111.737 53.6511 110.872 54.2758 109.432C54.6767 108.507 54.4541 106.743 54.9623 105.873C55.468 105.006 56.3825 104.317 57.6223 104.205C58.6214 104.114 59.8441 103.979 60.846 104.024C62.8043 104.113 64.528 104.982 66.4804 105.157C66.7097 105.177 66.9578 105.206 67.1258 105.364C67.3151 105.542 67.3453 105.827 67.3638 106.086C67.5276 108.393 67.6911 110.7 67.8549 113.007C66.1122 113.763 64.8447 113.04 63.1918 113.977C62.6304 114.295 62.1933 114.79 61.7781 115.284C60.1401 117.235 57.7391 119.226 55.7886 120.864C53.8384 122.503 51.2854 123.647 48.7729 123.229" fill="#F9AD8E"/>
<path d="M50.6906 123.133C50.8312 123.686 51.5026 123.918 52.0733 123.905C52.4616 123.896 52.8732 123.804 53.1431 123.525C53.3361 123.324 53.4338 123.053 53.5844 122.819C54.0075 122.164 58.2478 119.201 59.1284 118.132" fill="#F9AD8E"/>
<path d="M50.5218 123.179C50.7931 124.045 51.933 124.231 52.6988 123.984C53.412 123.754 53.5604 123.027 54.0711 122.561C55.1964 121.536 56.4584 120.656 57.6419 119.7C58.196 119.253 58.7922 118.805 59.2519 118.256C59.3958 118.084 59.1495 117.836 59.0047 118.009C58.6659 118.413 58.2445 118.752 57.8404 119.088C57.2678 119.564 56.6807 120.023 56.0941 120.481C55.5338 120.919 54.9707 121.355 54.4202 121.805C54.0924 122.074 53.7113 122.347 53.4598 122.693C53.3383 122.861 53.263 123.058 53.149 123.231C52.9491 123.533 52.638 123.674 52.2864 123.716C51.7681 123.779 51.0381 123.657 50.8592 123.086C50.7923 122.872 50.4543 122.963 50.5218 123.179Z" fill="#F35C61"/>
<path d="M47.7056 122.373C48.0161 123.681 49.7848 123.48 50.5705 123.152C51.3559 122.824 51.9543 122.082 52.1086 121.245" fill="#F9AD8E"/>
<path d="M47.5367 122.42C47.8094 123.484 48.9524 123.671 49.8929 123.519C51.0684 123.33 52.0416 122.482 52.2771 121.291C52.3208 121.071 51.9837 120.977 51.9397 121.199C51.7331 122.243 50.9163 122.975 49.8887 123.166C49.1207 123.31 48.1032 123.22 47.8741 122.327C47.8184 122.109 47.4807 122.201 47.5367 122.42Z" fill="#F35C61"/>
<path d="M46.1085 120.916C46.1866 121.587 46.7721 122.138 47.4343 122.27C48.0967 122.401 48.7995 122.155 49.31 121.713C49.8201 121.271 50.1528 120.651 50.3493 120.005" fill="#F9AD8E"/>
<path d="M45.9399 120.963C46.093 122.062 47.2615 122.647 48.2801 122.427C49.4497 122.174 50.1808 121.134 50.5182 120.052C50.5854 119.837 50.2477 119.744 50.1808 119.959C49.8921 120.885 49.299 121.782 48.3179 122.057C47.4348 122.304 46.4122 121.838 46.2773 120.87C46.2465 120.648 45.9091 120.742 45.9399 120.963Z" fill="#F35C61"/>
<path d="M48.8622 113.954C47.5639 114.52 46.4293 115.455 45.6263 116.621C45.1066 117.376 44.7157 118.283 44.8476 119.19C44.9797 120.096 45.787 120.942 46.6989 120.854C47.4505 120.782 48.0133 120.151 48.4554 119.54C48.8978 118.928 49.3494 118.25 50.0595 117.994" fill="#F9AD8E"/>
<path d="M48.774 113.804C47.8394 114.219 46.9887 114.809 46.2792 115.546C45.5733 116.28 44.9246 117.191 44.7143 118.203C44.527 119.106 44.7613 120.058 45.5053 120.645C46.1941 121.188 47.0641 121.117 47.7369 120.588C48.6228 119.89 49.012 118.593 50.1063 118.163C50.3135 118.081 50.223 117.742 50.013 117.825C48.9933 118.226 48.5761 119.231 47.8707 119.987C47.4832 120.402 46.9616 120.771 46.3627 120.669C45.8268 120.577 45.3922 120.146 45.171 119.667C44.6222 118.478 45.4042 117.116 46.1543 116.211C46.9101 115.298 47.8693 114.586 48.9507 114.106C49.1559 114.014 48.9781 113.713 48.774 113.804Z" fill="#F35C61"/>
<path d="M79.6919 93.352C85.2777 87.8707 91.9509 83.8547 99.0002 83.2826C102.096 83.0315 105.337 83.4943 107.989 85.5355C110.641 87.5767 112.563 91.4525 112.163 95.3529C111.891 98.007 110.6 100.368 108.966 102.063C107.332 103.758 105.37 104.862 103.395 105.807C97.8911 108.441 69.8903 114.036 64.017 114.455L58.8904 103.577L79.6919 93.352Z" fill="#D94D56"/>
<path d="M99.0743 91.9117C100.606 91.2363 102.295 90.9882 103.957 91.173C104.18 91.198 104.179 90.848 103.957 90.823C102.23 90.631 100.487 90.909 98.8977 91.6096C98.6919 91.7003 98.8699 92.0018 99.0743 91.9117Z" fill="#1B1C1D"/>
<path d="M68.2564 100.162C66.6509 100.644 65.0356 101.099 63.4441 101.626C61.8674 102.149 60.3271 102.768 58.8019 103.426C58.737 103.454 58.6969 103.558 58.7216 103.623C60.1627 107.458 61.915 111.171 63.9632 114.719C64.0043 114.791 64.0839 114.814 64.1606 114.799C66.6347 114.341 69.1076 113.877 71.5803 113.412C75.9066 112.598 80.2323 111.781 84.551 110.929C86.1014 110.623 87.6568 110.329 89.1959 109.969C89.4152 109.917 89.3222 109.58 89.1027 109.631C85.7463 110.416 82.3385 111.01 78.9538 111.658C74.886 112.438 70.8153 113.203 66.7436 113.964C65.8518 114.13 64.9597 114.297 64.0676 114.462C64.1334 114.489 64.1995 114.516 64.2653 114.542C62.2322 111.02 60.4895 107.337 59.0593 103.53C59.0324 103.596 59.0055 103.662 58.9786 103.728C60.5038 103.071 62.0452 102.455 63.623 101.935C65.1868 101.42 66.7727 100.973 68.3494 100.499C68.5647 100.435 68.4729 100.097 68.2564 100.162Z" fill="#1B1C1D"/>
<path d="M101.049 80.0792C99.8231 77.929 97.6774 76.4229 95.3792 75.5031C93.0812 74.583 90.6122 74.1899 88.1672 73.8035L46.0353 78.0758C42.5569 79.0664 40.4211 82.9769 40.7831 86.5754C41.1449 90.174 43.582 93.324 46.6135 95.2966C49.6451 97.2686 53.2252 98.2136 56.7815 98.8711C66.3185 100.635 76.1972 100.532 85.6957 98.5715C90.2924 97.6228 94.9875 96.1366 98.362 92.8746C101.737 89.6126 103.374 84.1565 101.049 80.0792Z" fill="#F8A264"/>
<path d="M57.148 99.0931C65.0451 100.936 73.2472 100.377 81.2148 99.3339C85.1892 98.8137 89.1685 98.2094 92.8967 96.6683C95.9487 95.4069 98.8294 93.4405 100.6 90.5948C101.513 89.1279 102.004 87.4087 102.171 85.6979C102.341 83.9591 102.16 82.1514 101.438 80.5481C101.345 80.3429 101.044 80.5207 101.136 80.7245C102.397 83.524 102.034 87.1391 100.638 89.8218C99.1211 92.7377 96.2548 94.8072 93.3103 96.1142C89.7568 97.6914 85.9172 98.348 82.0915 98.8672C78.1869 99.3966 74.261 99.8192 70.3198 99.9247C65.9324 100.042 61.5233 99.7548 57.241 98.7557C57.022 98.7045 56.9285 99.0419 57.148 99.0931Z" fill="#1B1C1D"/>
<path d="M40.5555 86.3839C42.4522 89.5485 46.2473 90.7161 49.632 91.5045C54.3026 92.5929 59.038 93.4612 63.812 93.9405C68.5852 94.4199 73.4154 94.4958 78.1855 93.9389C82.3136 93.457 86.3946 92.5025 90.2706 90.9938C94.08 89.5115 97.6847 87.4947 100.852 84.9021C101.256 84.5709 101.652 84.2301 102.042 83.8815C102.21 83.7309 101.962 83.4839 101.794 83.634C98.7636 86.3467 95.2666 88.4962 91.5345 90.1015C87.7806 91.7162 83.7959 92.7822 79.7572 93.3811C75.1797 94.0598 70.52 94.1172 65.9106 93.7742C61.1492 93.4203 56.4292 92.6327 51.7656 91.6235C48.2658 90.8661 44.142 90.1213 41.65 87.2984C41.3512 86.9601 41.0894 86.5942 40.8576 86.2072C40.742 86.0143 40.4393 86.1901 40.5555 86.3839Z" fill="#DDE3C2"/>
<path d="M80.9922 48.1701L67.7849 45.4236C67.7849 45.4236 54.1235 46.769 52.4835 48.216C50.8433 49.6633 56.6317 81.3064 56.6317 81.3064H87.4068V55.592L80.9922 48.1701Z" fill="#F9AD8E"/>
<path d="M81.7188 49.5555C80.099 49.0955 78.442 48.7864 76.7659 48.6265C76.5419 48.6052 76.5433 48.9552 76.7659 48.9765C78.4109 49.1333 80.0363 49.4416 81.6256 49.8932C81.8429 49.9548 81.9356 49.6171 81.7188 49.5555Z" fill="#F35C61"/>
<path d="M69.6707 48.5016C68.6622 48.3039 67.6536 48.1065 66.645 47.9091C66.4252 47.866 66.3309 48.2034 66.5521 48.2468C67.5606 48.4442 68.5692 48.6416 69.5778 48.839C69.7976 48.8821 69.8919 48.5447 69.6707 48.5016Z" fill="#F35C61"/>
<path d="M86.1177 63.6933C85.9491 61.948 84.6818 60.4041 82.9937 59.9164C82.777 59.8536 82.6843 60.1913 82.9007 60.2538C84.429 60.6956 85.6145 62.106 85.7677 63.6933C85.7889 63.9156 86.1392 63.9178 86.1177 63.6933Z" fill="#F35C61"/>
<path d="M85.3331 55.6315C84.9461 57.2258 84.4379 58.8174 83.8292 60.3406C83.7457 60.5497 84.084 60.6407 84.1666 60.4338C84.7753 58.9103 85.2835 57.3188 85.6705 55.7245C85.7237 55.5058 85.3863 55.4125 85.3331 55.6315Z" fill="#F35C61"/>
<path d="M72.2523 66.4174C72.2103 64.5308 73.1282 62.6791 74.6696 61.5854C74.8519 61.4561 74.6771 61.1526 74.4932 61.2833C72.851 62.4484 71.8572 64.4011 71.9023 66.4174C71.9074 66.6422 72.2574 66.6431 72.2523 66.4174Z" fill="#F35C61"/>
<path d="M68.2298 60.9988C69.0046 61.5949 69.5652 62.449 69.8208 63.3906C69.8796 63.6076 70.2176 63.5155 70.1582 63.2974C69.8771 62.2611 69.256 61.3502 68.4065 60.6964C68.3309 60.6385 68.2111 60.6855 68.1671 60.7594C68.1134 60.849 68.1554 60.9414 68.2298 60.9988Z" fill="#F35C61"/>
<path d="M81.8549 72.2422L60.0544 59.6725L56.1495 61.4188L54.2979 67.6021L55.442 74.5321L82.8027 74.065L81.8549 72.2422Z" fill="white"/>
<path d="M80.9242 48.1978C80.9242 48.1978 88.2801 49.2629 90.0609 52.0604C91.3836 54.1383 93.2434 59.5064 93.2434 59.5064L84.5244 60.7516L81.0146 48.3742" fill="#F9AD8E"/>
<path d="M97.9829 73.5325C96.591 67.765 91.2965 54.4746 91.2965 54.4746L85.2857 58.3876L87.829 74.0804L93.6577 84.2674C98.945 82.1288 98.945 77.5183 97.9829 73.5325Z" fill="#F9AD8E"/>
<path d="M94.9329 61.4343L82.7778 72.2576L83.7259 74.0804L95.5576 63.1327L94.9329 61.4343Z" fill="white"/>
<path d="M80.9648 75.2926C80.9648 75.2926 82.9312 76.7595 85.2477 76.9096C88.7552 77.1364 91.4556 75.0672 91.4556 75.0672C91.4556 75.0672 96.2332 72.4842 93.3509 66.5977C90.4686 60.711 84.4161 62.9432 83.7407 63.5737C83.0651 64.2043 82.348 64.5045 81.9918 64.6753C81.6359 64.8461 79.7048 64.5092 78.4367 65.522C77.3332 66.4031 76.8393 68.3878 76.9801 69.5027C77.1207 70.6177 77.4763 72.1053 77.4763 72.1053" fill="#F9AD8E"/>
<path d="M80.9648 75.2926C80.9648 75.2926 82.9312 76.7595 85.2477 76.9096C88.7552 77.1364 91.4556 75.0672 91.4556 75.0672C91.4556 75.0672 96.2332 72.4842 93.3509 66.5977C90.4686 60.711 84.4161 62.9432 83.7407 63.5737C83.0651 64.2043 82.348 64.5045 81.9918 64.6753C81.6359 64.8461 79.7048 64.5092 78.4367 65.522C77.3332 66.4031 76.8393 68.3878 76.9801 69.5027C77.1207 70.6177 77.4763 72.1053 77.4763 72.1053" stroke="#F35C61" stroke-width="1.33333" stroke-miterlimit="10"/>
<path d="M84.4861 67.0661C84.8652 67.2596 85.0744 67.6877 85.0268 68.108C84.9783 68.5345 84.667 68.8915 84.2965 69.0838C83.4336 69.5318 82.2673 68.9956 82.2273 67.9773C82.2183 67.7527 81.8683 67.7516 81.8773 67.9773C81.9151 68.9382 82.7688 69.6494 83.7152 69.5929C84.5779 69.5413 85.4381 68.8335 85.3796 67.912C85.3496 67.4377 85.0928 66.9833 84.6628 66.764C84.4626 66.6618 84.2853 66.9637 84.4861 67.0661Z" fill="#F35C61"/>
<path d="M81.7561 64.2401C81.6836 64.6302 81.7874 65.0236 82.0425 65.3271C82.1016 65.3977 82.2298 65.3926 82.29 65.3271C82.3586 65.2523 82.353 65.1546 82.29 65.0796C82.2838 65.0723 82.2774 65.0647 82.2713 65.0572C82.2836 65.0734 82.2839 65.0737 82.2721 65.0577C82.2606 65.0421 82.2491 65.0261 82.2385 65.0099C82.2172 64.9774 82.1976 64.9435 82.1797 64.9088C82.171 64.8914 82.1629 64.8738 82.1545 64.8561C82.1467 64.8377 82.1467 64.8382 82.1551 64.8575C82.1514 64.8483 82.1481 64.8393 82.1447 64.8301C82.1318 64.7959 82.1209 64.7609 82.1117 64.7256C82.1021 64.6901 82.0954 64.6543 82.0887 64.6181C82.0856 64.598 82.0856 64.5991 82.089 64.6212C82.0876 64.6117 82.0867 64.6019 82.0856 64.5924C82.0839 64.5728 82.0825 64.5535 82.0817 64.5339C82.08 64.4949 82.0806 64.456 82.0831 64.4171C82.0842 64.3975 82.0862 64.3782 82.0884 64.3589C82.0834 64.4042 82.0921 64.3412 82.0935 64.3331C82.1103 64.2435 82.0688 64.1399 81.9714 64.1178C81.8854 64.0982 81.774 64.1438 81.7561 64.2401Z" fill="#1B1C1D"/>
<path d="M81.6544 72.3906C80.9894 71.4722 79.8753 70.9542 78.7517 70.8019C77.6283 70.6496 76.4862 70.826 75.3788 71.0701C71.6425 71.8933 68.0806 73.5003 64.9911 75.7568C63.2134 77.0551 61.4841 78.6153 59.3186 79.0107C58.576 79.1462 57.7122 79.1871 57.2541 79.7871C56.9201 80.225 55.9616 80.855 56.107 81.3862C56.6014 83.1925 57.6265 86.0222 59.3256 86.8095C61.4219 87.7806 65.357 86.8328 67.643 87.1665C69.9289 87.5003 72.326 87.3312 74.4399 86.3999C76.0922 85.6719 78.1872 84.63 79.5147 83.4061C80.7959 82.2254 81.3559 80.8284 82.1576 79.2814C82.9589 77.7344 83.2879 75.871 82.7025 74.2299" fill="#3D907E"/>
<path d="M51.6583 79.0829C52.7248 77.6681 54.6131 74.8031 55.995 73.6943C57.3765 72.5855 59.1125 71.8144 60.8798 71.937C62.6472 72.0596 64.7046 72.8588 65.1582 74.5713C65.0549 74.695 65.2613 74.4475 65.1582 74.5713L66.2782 77.474L60.6466 80.8645L53.0779 84.0792C52.2108 84.3791 51.3237 84.6826 50.4059 84.6866C49.488 84.6905 48.5173 84.341 48.0074 83.5778C47.6776 83.0844 47.5728 82.479 47.4759 81.8935C47.1954 80.1984 46.9145 78.5033 46.634 76.8082C46.5659 76.3971 46.5072 75.9396 46.7404 75.5944C47.131 75.0165 48.1776 74.7734 48.8549 74.9409C49.6384 75.1346 49.9542 75.8125 50.4392 76.7961C51.1554 78.2493 51.6583 79.0829 51.6583 79.0829Z" fill="#3D907E"/>
<path d="M53.8168 76.3958C54.8643 74.3851 56.6768 72.7096 58.9397 72.2327C61.2363 71.7489 63.772 72.5743 64.995 74.6544C65.6264 75.7288 65.8582 77.0143 65.5438 78.2275C65.4872 78.4459 65.8249 78.5389 65.8815 78.3208C66.47 76.0497 65.2792 73.591 63.2442 72.4839C61.0134 71.2701 58.2296 71.629 56.2016 73.0775C55.0648 73.8892 54.1582 74.9834 53.5147 76.2191C53.4106 76.4184 53.7127 76.5957 53.8168 76.3958Z" fill="#1B1C1D"/>
<path d="M57.8206 86.2442C61.145 88.2459 65.2991 88.24 69.0486 87.9438C71.1066 87.7811 73.1693 87.4263 75.0826 86.6258C76.6223 85.9815 78.0368 85.0519 79.252 83.9087C80.6652 82.5795 81.7989 80.9637 82.558 79.1781C82.6451 78.9731 82.3438 78.7948 82.2559 79.0014C80.9396 82.0971 78.4857 84.6619 75.4359 86.0891C73.6355 86.9316 71.6604 87.3393 69.6923 87.5364C67.8115 87.7245 65.8924 87.7889 64.0058 87.6543C61.9069 87.5045 59.8156 87.0366 57.9973 85.9418C57.8038 85.8253 57.6277 86.128 57.8206 86.2442Z" fill="#1B1C1D"/>
<path d="M66.6557 71.5338C66.8735 71.1813 66.409 70.7269 66.2147 70.3609C66.0201 69.995 65.7233 69.6956 65.4808 69.3596C64.6708 68.2382 64.517 66.6767 65.0921 65.4186C65.044 65.1468 65.1686 64.8519 65.3974 64.6968C65.6258 64.5417 65.9459 64.535 66.1808 64.6803C66.068 64.353 66.4031 63.9834 66.7484 64.013C67.0933 64.0424 67.3282 64.1841 67.3187 64.5302C67.3341 64.3726 67.6214 64.2883 67.7715 64.3398C67.9216 64.3913 68.0128 64.6486 67.9874 64.9015C67.9714 65.0591 68.0022 65.2173 67.9941 65.3758C67.9764 65.7182 68.0061 66.0632 68.0817 66.3978C68.1335 66.6274 68.2158 66.8654 68.3984 67.0138C68.5812 67.1625 68.8898 67.1756 69.029 66.9858C69.1858 66.7719 69.0558 66.4395 69.2093 66.2231C69.3666 66.0013 69.7402 66.057 69.9138 66.2662C70.0876 66.4754 70.1112 66.7685 70.1067 67.0404C70.0952 67.7387 69.7844 68.7546 69.3188 69.3638L69.7362 70.5284L66.6557 71.5338Z" fill="#F9AD8E"/>
<path d="M66.8069 71.6223C67.0457 71.1194 66.6072 70.6832 66.3656 70.2727C66.01 69.6679 65.4912 69.1891 65.2184 68.532C64.9519 67.8888 64.8614 67.174 64.9617 66.4849C64.9866 66.313 65.023 66.1427 65.0717 65.9758C65.1193 65.8123 65.2184 65.6496 65.252 65.4861C65.2854 65.3257 65.2464 65.1636 65.3388 65.0101C65.4982 64.7447 65.8328 64.6974 66.0926 64.8315C66.2306 64.9026 66.3832 64.7856 66.3496 64.6338C66.2376 64.1306 67.1244 64.0156 67.1437 64.5302C67.1513 64.7284 67.4268 64.7668 67.4876 64.5767C67.5128 64.5299 67.5545 64.5058 67.613 64.5044C67.7628 64.5509 67.8308 64.6472 67.8163 64.7934C67.8233 64.9057 67.8104 65.0255 67.8129 65.1384C67.8191 65.4321 67.8073 65.725 67.8412 66.0176C67.8865 66.4104 67.9638 66.9141 68.3102 67.165C68.5577 67.3442 68.9449 67.3621 69.1527 67.1096C69.2823 66.9519 69.2605 66.7909 69.2952 66.6053C69.3358 66.3902 69.3924 66.1847 69.6452 66.2883C69.8076 66.355 69.8743 66.5148 69.9081 66.6764C70.0075 67.1479 69.8731 67.6883 69.7309 68.1366C69.6531 68.3819 69.5576 68.621 69.4372 68.8484C69.3577 68.9987 69.153 69.1922 69.1437 69.3638C69.1339 69.5433 69.2879 69.7953 69.347 69.9602C69.4207 70.1652 69.494 70.3699 69.5674 70.5748C69.6083 70.5032 69.6489 70.4312 69.6897 70.3595C68.663 70.6947 67.6359 71.0298 66.6092 71.365C66.3961 71.4347 66.4874 71.7727 66.7022 71.7027C67.7292 71.3675 68.7559 71.0323 69.7827 70.6969C69.8675 70.6695 69.9381 70.5743 69.9051 70.4819C69.8393 70.2985 69.7735 70.1151 69.7077 69.932C69.6561 69.7883 69.4727 69.482 69.4915 69.3288C69.4797 69.426 69.587 69.2854 69.6099 69.249C69.6654 69.1611 69.7163 69.0704 69.7637 68.9777C69.8611 68.787 69.9448 68.588 70.0162 68.3861C70.1585 67.9843 70.2584 67.5564 70.2786 67.1294C70.2951 66.7836 70.2688 66.3726 70.0087 66.1133C69.8068 65.9123 69.4557 65.8305 69.2062 65.9924C69.0903 66.0674 69.02 66.1786 68.9825 66.3099C68.9217 66.5221 68.9441 67.1082 68.5605 66.9119C68.0817 66.6669 68.1775 65.6911 68.1694 65.2568C68.1629 64.9222 68.2396 64.3667 67.86 64.1886C67.5998 64.0668 67.2364 64.213 67.1499 64.4837C67.2644 64.4994 67.3792 64.5148 67.4937 64.5302C67.4551 63.5068 65.7871 63.7154 66.012 64.7268C66.0976 64.661 66.1833 64.5952 66.269 64.5294C65.6936 64.232 65.0157 64.5291 64.9155 65.1899C64.8631 65.5365 64.7259 65.8524 64.6565 66.2001C64.5823 66.572 64.556 66.9536 64.5828 67.3316C64.6335 68.049 64.8617 68.7618 65.2672 69.3585C65.4993 69.7007 65.7927 69.9972 66.008 70.3511C66.1598 70.6003 66.649 71.1418 66.5045 71.4456C66.4084 71.6478 66.71 71.8256 66.8069 71.6223Z" fill="#F35C61"/>
<path d="M67.5047 66.7265C67.1821 66.0822 67.1406 65.2686 67.4699 64.6187C67.5713 64.4182 67.2695 64.2407 67.1675 64.442C66.7789 65.2098 66.8209 66.141 67.2023 66.9032C67.3031 67.1045 67.6052 66.9276 67.5047 66.7265Z" fill="#F35C61"/>
<path d="M66.3603 66.8509C66.1506 66.1489 66.1489 65.3806 66.3824 64.6842C66.4544 64.47 66.1164 64.3782 66.045 64.591C65.793 65.3428 65.7966 66.1864 66.0229 66.9438C66.087 67.1591 66.425 67.0676 66.3603 66.8509Z" fill="#F35C61"/>
<path d="M65.4385 67.0138C65.3374 66.7884 65.2831 66.5137 65.2559 66.2612C65.2279 66.0005 65.2193 65.714 65.261 65.4654C65.2764 65.3722 65.2363 65.277 65.1386 65.2501C65.0549 65.2269 64.939 65.2784 64.9236 65.3722C64.8729 65.6748 64.874 65.9831 64.909 66.2875C64.9443 66.5983 65.0079 66.904 65.1361 67.1905C65.1747 67.2767 65.3002 67.2974 65.3755 67.2532C65.4643 67.2014 65.4771 67.1006 65.4385 67.0138Z" fill="#F35C61"/>
<path d="M66.194 70.5211C66.2144 71.6722 66.2365 72.8353 66.5202 73.9511C66.8041 75.0669 67.3781 76.1474 68.3096 76.8239C68.9606 77.2965 69.7441 77.5457 70.5203 77.7577C71.9539 78.1494 73.4485 78.4417 74.9213 78.2446C76.3944 78.0475 77.8554 77.2918 78.5929 76.0015C78.9169 75.4345 79.0899 74.788 79.1364 74.1367C79.1832 73.4829 79.0717 72.7555 78.5758 72.3268C78.1592 71.9665 77.569 71.8995 77.0182 71.8841C75.7338 71.8483 74.4526 72.0031 73.1772 72.158C72.6477 72.2221 72.1179 72.2862 71.5884 72.3506C71.4608 72.366 71.3258 72.3806 71.2082 72.3288C71.1108 72.2859 71.038 72.2031 70.9699 72.1216C70.3461 71.3754 70.301 70.2996 69.9485 69.393" fill="#3D907E"/>
<path d="M65.9739 71.0108C66.6666 73.2004 66.3107 76.006 68.2021 77.6664C69.1194 78.4716 70.2923 78.5467 71.4563 78.4067C72.7563 78.2504 74.0597 78.0463 75.3432 77.7879C76.8118 77.4922 78.2541 77.0798 79.6129 76.4422C79.8168 76.3467 79.6393 76.0449 79.4363 76.1401C77.1915 77.1932 74.7244 77.5869 72.2912 77.9405C71.0906 78.1152 69.7471 78.3532 68.6843 77.6039C67.851 77.0165 67.3761 76.025 67.1177 75.0657C66.7506 73.7016 66.7388 72.2691 66.3113 70.9178C66.2435 70.7036 65.9055 70.7952 65.9739 71.0108Z" fill="#1B1C1D"/>
<path d="M70.9749 74.5724C71.2547 73.8245 71.3176 73.0136 71.1729 72.2296C71.132 72.0084 70.7946 72.1019 70.8352 72.3226C70.9688 73.0461 70.8949 73.7915 70.6375 74.4794C70.5583 74.6906 70.8965 74.7818 70.9749 74.5724Z" fill="#1B1C1D"/>
<path d="M89.9883 75.3026L74.5279 75.9268L69.6307 75.782L73.0937 82.7039C73.0937 82.7039 82.6417 83.837 89.3597 84.4827C97.4599 85.2608 97.7877 80.5185 96.4552 77.4911C95.2627 74.7816 89.9883 75.3026 89.9883 75.3026Z" fill="#F9AD8E"/>
<path d="M72.8801 75.9251C78.4932 76.1586 84.1036 75.4043 89.717 75.4211C91.194 75.4253 92.6736 75.4785 94.1416 75.651C94.3648 75.6773 94.3631 75.327 94.1416 75.301C91.4315 74.9829 88.6836 75.0433 85.962 75.1486C83.0628 75.2609 80.1679 75.4636 77.2682 75.5622C75.8063 75.612 74.3422 75.6358 72.8801 75.5751C72.6549 75.5658 72.6552 75.9158 72.8801 75.9251Z" fill="#F35C61"/>
<path d="M65.0818 71.836C64.8505 71.5047 64.6153 71.1651 64.507 70.7759C64.3373 70.1649 64.5352 69.3916 65.422 69.3207C65.6079 69.3062 65.7964 69.3361 65.9725 69.3977C66.3995 69.547 66.8122 69.8085 67.0622 70.1854C68.0949 71.7422 69.0572 73.0307 70.0907 74.4867C70.5048 75.07 71.1561 75.4561 71.8704 75.495C72.1395 75.5096 72.305 75.4729 72.305 75.4729C72.6785 75.1786 72.5346 74.4562 72.3979 73.9673C72.3041 73.631 72.1563 73.3118 71.9603 73.0229C71.5599 72.4321 71.0032 71.6974 71.176 70.903C71.2544 70.5424 71.5061 70.2246 71.8642 70.1358C72.3744 70.0092 72.7756 70.387 73.1102 70.7353C74.0804 71.7455 75.0506 72.7558 76.0208 73.7657C76.8435 74.6225 77.6871 75.5118 78.106 76.6234C78.4829 77.6236 78.4826 78.7346 78.2846 79.7852C78.0867 80.8354 81.0541 80.6854 80.6691 81.6824C80.4896 82.147 83.4369 83.704 82.9917 83.9266C82.6218 84.1117 76.2289 83.7995 75.8198 83.7379C74.1544 83.4876 72.0496 83.3017 70.5362 82.5619C68.2931 81.4652 66.5157 79.7062 65.142 77.621C64.8936 77.2442 64.6461 76.8516 64.5607 76.4086C64.4753 75.9657 64.5873 75.4555 64.9485 75.185C64.5834 74.8185 64.213 74.4447 63.9705 73.9875C63.728 73.5305 63.6283 72.9697 63.8296 72.4928C64.0307 72.0163 64.5887 71.6794 65.0818 71.836Z" fill="#F9AD8E"/>
<path d="M68.9998 76.8435C67.5604 75.378 65.5458 73.0514 64.3583 70.9052L68.9998 76.8435Z" fill="#F9AD8E"/>
<path d="M69.1236 76.7197C67.3834 74.9437 65.7244 72.996 64.5095 70.817C64.3997 70.6202 64.0973 70.7966 64.2074 70.9937C65.4357 73.1968 67.1166 75.1713 68.8761 76.9672C69.034 77.1282 69.2815 76.8807 69.1236 76.7197Z" fill="#F35C61"/>
<path d="M67.4761 78.4568C66.3323 77.247 65.2078 75.7859 64.1259 74.5234L67.4761 78.4568Z" fill="#F9AD8E"/>
<path d="M67.5998 78.3331C66.418 77.0787 65.3691 75.7084 64.2496 74.3996C64.1029 74.2283 63.8563 74.4769 64.0021 74.6472C65.1216 75.9556 66.1704 77.3262 67.3523 78.5806C67.5071 78.745 67.7541 78.4972 67.5998 78.3331Z" fill="#F35C61"/>
<path d="M84.2822 83.7891C81.1395 83.7998 77.9814 83.5847 74.8614 83.2132C73.6854 83.0732 72.4951 82.9231 71.3451 82.6316C69.9978 82.2903 68.787 81.3898 67.7541 80.4919C66.9497 79.7921 66.2169 79.0056 65.5777 78.1525C65.0625 77.4648 63.8991 76.1328 64.8337 75.3864C64.9085 75.3264 64.8934 75.201 64.8337 75.1388C64.407 74.6947 63.8635 74.0149 63.7574 73.3919C63.6538 72.7846 63.9884 71.6733 64.7945 71.8774C64.9326 71.9124 65.0832 71.7511 64.9922 71.6204C64.6999 71.2004 64.3611 70.7316 64.388 70.1946C64.4176 69.5968 64.9326 69.2779 65.4973 69.3876C66.0013 69.4856 66.2953 69.8956 66.5636 70.296C66.8324 70.6969 67.1098 71.0917 67.4024 71.4759C67.8793 72.1022 68.3914 72.7003 68.8842 73.3141C69.4621 74.034 69.9622 74.8356 70.7582 75.3385C71.1651 75.5955 71.8169 75.9111 72.3013 75.6773C72.919 75.3791 72.5578 74.471 72.3993 74.0043C72.2638 73.6061 72.13 73.2357 71.9057 72.8759C71.636 72.4435 71.3056 72.0319 71.153 71.5386C71.0072 71.0671 71.0836 70.4035 71.6139 70.2024C72.1504 69.9989 72.6082 70.5883 72.9336 70.9271C73.8254 71.8558 74.7174 72.7843 75.6092 73.7131C76.4232 74.5609 77.2607 75.4303 77.6964 76.5425C77.7778 76.7497 78.1164 76.6595 78.034 76.4492C77.642 75.4496 76.9622 74.6323 76.2328 73.8595C75.3953 72.9716 74.5427 72.0977 73.6974 71.2174C73.1654 70.6633 72.373 69.4979 71.4563 69.8866C70.5566 70.2677 70.6454 71.3854 71.013 72.1053C71.2533 72.5757 71.6069 72.9803 71.8318 73.4591C72.0177 73.8553 72.175 74.3366 72.261 74.7667C72.2957 74.9403 72.3509 75.2214 72.1826 75.3457C72.0787 75.4225 71.9023 75.4045 71.7844 75.3872C71.4031 75.3306 71.0422 75.1262 70.7358 74.9008C70.275 74.5617 69.9474 74.1101 69.601 73.6624C69.2905 73.2609 68.9716 72.8664 68.649 72.4741C68.0492 71.7447 67.4646 71.0086 66.9365 70.2246C66.6599 69.8138 66.3818 69.3739 65.9162 69.1575C65.5256 68.9757 65.0381 68.9617 64.6509 69.158C64.2424 69.3652 64.0374 69.7992 64.036 70.2453C64.034 70.831 64.3684 71.3347 64.6901 71.797C64.7559 71.7113 64.8217 71.6254 64.8875 71.5397C64.02 71.3202 63.4847 72.1647 63.3984 72.9243C63.294 73.8435 63.9817 74.7572 64.5862 75.3864C64.5862 75.3038 64.5862 75.2211 64.5862 75.1388C63.8842 75.6997 64.1158 76.5332 64.519 77.2161C65.016 78.0584 65.6382 78.8449 66.2992 79.5639C66.9516 80.2732 67.6707 80.9203 68.4468 81.4917C69.1034 81.975 69.8216 82.4583 70.5824 82.7618C71.5744 83.1575 72.709 83.2759 73.7582 83.4212C75.3679 83.6444 76.9874 83.7989 78.608 83.9171C80.4955 84.0549 82.3892 84.1456 84.2822 84.1391C84.5074 84.1386 84.5079 83.7886 84.2822 83.7891Z" fill="#F35C61"/>
<path d="M66.0537 83.204L52.4616 72.8207L60.0678 46.3764C53.9414 47.5779 51.1061 46.8527 47.9424 54.4746C47.9424 54.4746 44.4825 65.4691 42.7341 71.4224C41.6379 75.1543 42.4385 79.0505 47.0363 82.0081C49.1422 83.363 64.0234 89.8436 64.0234 89.8436L66.0537 83.204Z" fill="#F9AD8E"/>
<path d="M48.7368 74.2042C49.6843 73.3701 51.0034 72.9994 52.2466 73.2234C52.467 73.2628 52.5613 72.9257 52.3396 72.8857C50.9659 72.6384 49.5376 73.0341 48.4896 73.9567C48.3202 74.106 48.5683 74.3526 48.7368 74.2042Z" fill="#F35C61"/>
<path d="M78.7643 84.3181C79.1325 84.1512 79.5082 83.9793 79.8 83.6998C80.0918 83.4204 80.2889 83.008 80.2054 82.6126C80.1119 82.1699 79.6866 81.8563 79.2434 81.7667C78.7999 81.6771 78.3118 81.6911 77.9044 81.8877C76.0279 82.7924 75.091 83.1449 73.2284 83.9846C71.8679 84.5412 71.1987 84.1663 71.0167 83.694C70.835 83.2219 71.0844 82.6949 71.4546 82.35C71.8248 82.005 72.6034 81.8266 73.0559 81.6004C73.5087 81.3742 73.6655 81.0723 73.9049 80.6266C74.1443 80.1808 73.7092 79.8381 73.2771 79.5743C72.9179 79.3548 71.2343 79.1633 70.8283 79.2756C69.4784 79.6488 69.6035 79.7518 68.2536 80.1251C67.109 80.4415 65.963 81.4551 65.0353 82.1971C64.2006 82.8646 63.7196 83.4075 63.3536 84.4119C62.9874 85.4162 62.8077 86.4769 62.6299 87.5311C62.547 88.0219 62.4736 88.5654 62.7427 88.9843C62.9664 89.3321 63.3733 89.5076 63.7563 89.6633C65.3164 90.2983 66.9068 90.9409 68.5857 91.0773C71.0746 91.2797 73.5132 90.3529 75.759 89.2612C76.1648 89.0641 76.5783 88.8533 76.8779 88.5159C77.1775 88.1785 77.3416 87.6826 77.1691 87.2657C77.6703 87.1369 78.1796 87.0047 78.6215 86.7353C79.0633 86.4662 79.4354 86.0348 79.5057 85.5221C79.576 85.0097 79.2683 84.4351 78.7643 84.3181Z" fill="#F9AD8E"/>
<path d="M65.1773 82.2366C66.2746 81.3826 67.384 80.5213 68.6431 79.9313C69.9026 79.3414 71.3429 79.0376 72.6964 79.3562C73.3018 79.4984 73.9707 79.8952 73.9732 80.5168C73.9754 81.0779 73.4247 81.4797 72.8946 81.6637C72.3646 81.8477 71.7732 81.9286 71.3485 82.2951C70.852 82.7232 70.7546 83.6024 71.2597 84.0196C71.8208 84.4833 72.6555 84.1694 73.3152 83.8623C74.7737 83.1824 76.2846 82.6151 77.8299 82.1666C78.1917 82.0613 78.566 81.9619 78.9407 82.0011C79.3156 82.0403 79.7807 82.0588 80.0624 82.6219C80.3298 83.1569 79.8 83.6999 79.4234 83.9846L78.6713 84.3688C76.5545 85.6078 75.2304 86.1205 72.9268 86.9627" fill="#F9AD8E"/>
<path d="M65.301 82.3603C67.244 80.8486 69.4806 79.1557 72.0944 79.4299C72.6314 79.4861 73.3295 79.6292 73.6596 80.1072C74.051 80.6742 73.5165 81.202 73.0136 81.4277C72.168 81.8073 71.0209 81.8365 70.7848 82.938C70.5883 83.855 71.2997 84.5231 72.1988 84.4127C72.6885 84.3525 73.1379 84.1344 73.5812 83.9311C74.1801 83.6565 74.788 83.4014 75.4034 83.1659C76.0127 82.9327 76.6293 82.7185 77.2517 82.5236C77.8478 82.3371 78.4523 82.1134 79.0851 82.1909C79.6457 82.2598 80.1923 82.7101 79.8325 83.3084C79.6337 83.6391 79.3481 83.827 79.0179 83.9955C78.1175 84.4553 77.2542 84.9797 76.3378 85.4104C75.2133 85.9387 74.0463 86.3674 72.8801 86.7939C72.6704 86.8706 72.7611 87.2091 72.9733 87.1315C74.0715 86.7297 75.1705 86.3251 76.2359 85.8413C77.1741 85.4151 78.0486 84.8829 78.9639 84.4155C79.5709 84.1056 80.4605 83.5865 80.2939 82.7641C80.0755 81.6858 78.7071 81.7413 77.9044 81.963C76.5724 82.3309 75.2673 82.8139 74.0003 83.3633C73.4132 83.6178 72.819 83.9773 72.1761 84.063C71.4756 84.1565 70.9419 83.6556 71.1438 82.9436C71.3331 82.2755 72.0297 82.1064 72.6174 81.9336C73.1063 81.79 73.6013 81.594 73.918 81.1726C74.5601 80.318 73.7402 79.494 72.9257 79.2378C71.5949 78.8189 70.0857 79.1216 68.8358 79.655C67.443 80.2494 66.2399 81.1899 65.0535 82.1128C64.876 82.2509 65.1252 82.497 65.301 82.3603Z" fill="#F35C61"/>
<path d="M78.9793 84.3912C79.0882 84.525 79.2229 84.7633 79.2882 84.9548C79.4206 85.3429 79.3156 85.701 79.0888 86.0322C78.8066 86.4441 78.3697 86.597 77.9419 86.8288C76.4937 87.6126 74.9862 88.3666 73.3997 88.8264C73.1838 88.8891 73.2757 89.2268 73.493 89.1641C74.389 88.9042 75.2533 88.5399 76.0987 88.1479C76.9403 87.7576 77.7857 87.3457 78.5851 86.8739C79.0367 86.6076 79.3758 86.3475 79.5886 85.8351C79.835 85.2412 79.6172 84.6233 79.2266 84.1436C79.0843 83.9689 78.8382 84.2178 78.9793 84.3912Z" fill="#F35C61"/>
<path d="M52.5135 73.1119C53.7477 69.4554 54.9822 65.7989 56.2165 62.1424C56.2887 61.9285 55.9507 61.8366 55.8791 62.0494C54.6445 65.7059 53.4103 69.3624 52.1758 73.019C52.1035 73.2326 52.4415 73.3244 52.5135 73.1119Z" fill="#F35C61"/>
<path d="M51.4673 48.9714L56.2063 62.7967L60.6561 60.0474L52.8248 47.9245C52.8248 47.9245 51.8372 47.6661 51.4673 48.9714Z" fill="white"/>
<path d="M33.2811 65.9974C36.1816 67.0944 39.7205 65.9806 41.6318 63.3693C38.8659 61.9858 35.2968 63.2044 33.2811 65.9974Z" fill="#3D907E"/>
<path d="M28.4178 24.5999L29.4638 25.1406C29.6568 25.2406 29.6629 25.5139 29.475 25.6225L28.4553 26.2116C28.4099 26.2379 28.373 26.2766 28.3489 26.3233L27.8081 27.3694C27.7083 27.5623 27.4348 27.5688 27.3261 27.3806L26.7371 26.3609C26.7109 26.3155 26.6721 26.2785 26.6255 26.2545L25.5794 25.7138C25.3865 25.6141 25.3801 25.3406 25.5681 25.2319L26.5878 24.6428C26.6333 24.6165 26.6702 24.5778 26.6944 24.5311L27.2351 23.485C27.3348 23.2921 27.6083 23.2859 27.7169 23.4738L28.306 24.4935C28.3324 24.5389 28.371 24.5759 28.4178 24.5999Z" fill="white"/>
<path d="M12.5874 99.7878L13.0136 100.008C13.0923 100.049 13.0949 100.16 13.0183 100.204L12.6029 100.444C12.5843 100.455 12.5691 100.471 12.5593 100.49L12.339 100.916C12.2984 100.995 12.1869 100.997 12.1427 100.921L11.9026 100.505C11.8919 100.487 11.8761 100.472 11.8571 100.462L11.4308 100.241C11.3523 100.201 11.3496 100.089 11.4262 100.045L11.8417 99.8052C11.8603 99.7945 11.8754 99.7786 11.8852 99.7595L12.1055 99.3334C12.1462 99.2547 12.2576 99.2522 12.3019 99.3286L12.5419 99.7441C12.5527 99.7629 12.5684 99.7777 12.5874 99.7878Z" fill="white"/>
<path d="M113.368 57.2824L113.794 57.5028C113.873 57.5434 113.875 57.6548 113.799 57.699L113.383 57.939C113.365 57.9496 113.35 57.9656 113.34 57.9846L113.12 58.4108C113.079 58.4895 112.967 58.492 112.923 58.4153L112.683 58C112.673 57.9813 112.657 57.9662 112.638 57.9564L112.211 57.736C112.133 57.6954 112.13 57.584 112.207 57.5397L112.622 57.2998C112.641 57.2891 112.656 57.2732 112.666 57.2541L112.886 56.828C112.927 56.7493 113.038 56.7468 113.082 56.8235L113.322 57.239C113.333 57.2575 113.349 57.2726 113.368 57.2824Z" fill="white"/>
<path d="M19.6671 103.188L20.7131 103.729C20.906 103.828 20.9123 104.102 20.7243 104.21L19.7047 104.799C19.6592 104.826 19.6222 104.864 19.5982 104.911L19.0574 105.957C18.9577 106.15 18.6841 106.156 18.5755 105.968L17.9865 104.949C17.9603 104.903 17.9214 104.866 17.8747 104.842L16.8288 104.301C16.6358 104.202 16.6295 103.928 16.8175 103.82L17.8371 103.23C17.8826 103.204 17.9196 103.165 17.9438 103.119L18.4844 102.073C18.5841 101.88 18.8577 101.874 18.9663 102.061L19.5553 103.081C19.5816 103.127 19.6204 103.163 19.6671 103.188Z" fill="white"/>
<path d="M115.535 27.2871L116.581 27.8281C116.774 27.9275 116.78 28.2011 116.592 28.3097L115.573 28.8988C115.527 28.9251 115.49 28.9638 115.466 29.0105L114.925 30.0566C114.826 30.2495 114.552 30.256 114.444 30.0678L113.854 29.0483C113.828 29.0027 113.789 28.9657 113.743 28.9417L112.697 28.401C112.504 28.3013 112.498 28.0277 112.685 27.9191L113.705 27.33C113.751 27.3037 113.788 27.265 113.812 27.2183L114.353 26.1722C114.452 25.9793 114.726 25.9731 114.834 26.161L115.423 27.1805C115.45 27.2261 115.488 27.2631 115.535 27.2871Z" fill="white"/>
<path d="M107.042 34.5665C104.269 30.084 105.272 24.3317 109.174 21.0235C108.696 21.2285 108.227 21.4707 107.771 21.7524C102.833 24.8074 101.306 31.2869 104.36 36.2253C107.415 41.1636 113.895 42.6907 118.833 39.6359C119.289 39.354 119.715 39.0423 120.112 38.7061C115.409 40.7204 109.815 39.0493 107.042 34.5665Z" fill="#CDD3B1"/>
<path d="M44.8711 21.8123L45.9172 22.353C46.1101 22.4526 46.1166 22.7265 45.9284 22.8351L44.9089 23.424C44.8635 23.4503 44.8263 23.4889 44.8022 23.5357L44.2615 24.5818C44.1619 24.7747 43.8883 24.7811 43.7797 24.593L43.1905 23.5735C43.1645 23.5279 43.1256 23.4909 43.0788 23.4668L42.033 22.9261C41.8401 22.8264 41.8337 22.5529 42.0215 22.4442L43.0413 21.8551C43.0867 21.8288 43.1239 21.7899 43.148 21.7434L43.6887 20.6973C43.7883 20.5044 44.0619 20.498 44.1705 20.6861L44.7594 21.7056C44.7857 21.7513 44.8246 21.7882 44.8711 21.8123Z" fill="#CDD3B1"/>
<path d="M113.172 50.0335L114.218 50.5741C114.411 50.6738 114.418 50.9474 114.23 51.056L113.21 51.6449C113.164 51.6712 113.128 51.7101 113.103 51.7566L112.563 52.8027C112.463 52.9956 112.19 53.002 112.081 52.8139L111.492 51.7944C111.465 51.749 111.427 51.7118 111.38 51.6877L110.334 51.147C110.141 51.0473 110.135 50.7738 110.323 50.6651L111.343 50.076C111.388 50.05 111.425 50.0111 111.449 49.9646L111.99 48.9185C112.09 48.7256 112.363 48.7191 112.472 48.907L113.061 49.9268C113.087 49.9721 113.126 50.0094 113.172 50.0335Z" fill="#CDD3B1"/>
<path d="M125.655 81.4834L126.701 82.0243C126.894 82.124 126.9 82.3976 126.712 82.5062L125.693 83.095C125.647 83.1214 125.61 83.16 125.586 83.2068L125.045 84.2528C124.946 84.4458 124.672 84.4522 124.563 84.264L123.974 83.2446C123.948 83.1989 123.91 83.162 123.863 83.1379L122.817 82.5972C122.624 82.4975 122.617 82.224 122.805 82.1153L123.825 81.5262C123.871 81.4999 123.908 81.4612 123.932 81.4145L124.472 80.3684C124.572 80.1755 124.846 80.1693 124.954 80.3572L125.543 81.377C125.57 81.4223 125.608 81.4593 125.655 81.4834Z" fill="#CDD3B1"/>
<path d="M15.3938 88.4795L16.4397 89.0201C16.6326 89.1198 16.6391 89.3934 16.451 89.502L15.4314 90.0911C15.3859 90.1175 15.3489 90.1561 15.3248 90.2029L14.7841 91.2487C14.6843 91.4416 14.4108 91.448 14.3022 91.2601L13.7132 90.2404C13.6868 90.195 13.6482 90.1581 13.6014 90.1337L12.5555 89.593C12.3626 89.4933 12.3562 89.2198 12.5442 89.1111L13.5638 88.5223C13.6093 88.496 13.6463 88.4571 13.6704 88.4106L14.2112 87.3645C14.3109 87.1716 14.5844 87.1651 14.693 87.3533L15.282 88.3728C15.3084 88.4184 15.347 88.4554 15.3938 88.4795Z" fill="#CDD3B1"/>
<path d="M23.9212 64.1802L24.9671 64.7209C25.1601 64.8206 25.1664 65.0941 24.9784 65.2028L23.9588 65.7916C23.9133 65.8179 23.8763 65.8569 23.8521 65.9033L23.3115 66.9494C23.2118 67.1423 22.9382 67.1488 22.8296 66.9606L22.2406 65.9411C22.2143 65.8955 22.1755 65.8585 22.1288 65.8345L21.0829 65.2938C20.8899 65.1941 20.8836 64.9205 21.0716 64.8119L22.0912 64.2228C22.1367 64.1965 22.1737 64.1578 22.1977 64.1111L22.7385 63.065C22.8382 62.8723 23.1118 62.8659 23.2204 63.0538L23.8094 64.0735C23.8356 64.1189 23.8745 64.1559 23.9212 64.1802Z" fill="#CDD3B1"/>
<path d="M40.2416 19.8464L40.6053 20.0346C40.6725 20.069 40.6748 20.1642 40.6092 20.202L40.2548 20.407C40.2388 20.4159 40.2259 20.4294 40.2175 20.4456L40.0296 20.8096C39.9949 20.8765 39.8997 20.8788 39.8619 20.8135L39.6572 20.4588C39.648 20.4431 39.6346 20.4302 39.6183 20.4218L39.2546 20.2336C39.1874 20.1989 39.1852 20.104 39.2507 20.0662L39.6052 19.8612C39.6211 19.852 39.6337 19.8386 39.6421 19.8223L39.8303 19.4586C39.865 19.3914 39.9602 19.3894 39.998 19.4547L40.2027 19.8094C40.2119 19.8251 40.2254 19.838 40.2416 19.8464Z" fill="#CDD3B1"/>
<path d="M115.298 47.7156L115.661 47.9038C115.728 47.9382 115.731 48.0334 115.665 48.0712L115.311 48.2762C115.295 48.2852 115.282 48.2986 115.274 48.3148L115.086 48.6788C115.051 48.7458 114.956 48.748 114.918 48.6827L114.713 48.328C114.704 48.3123 114.691 48.2994 114.674 48.291L114.311 48.1029C114.243 48.0682 114.241 47.9732 114.307 47.9354L114.661 47.7305C114.677 47.7212 114.69 47.7078 114.698 47.6916L114.886 47.3278C114.921 47.2606 115.016 47.2587 115.054 47.3239L115.259 47.6787C115.268 47.6944 115.281 47.7072 115.298 47.7156Z" fill="#CDD3B1"/>
<path d="M27.1049 48.5139C27.5048 45.5826 25.0444 42.5804 22.0914 42.3965C19.1386 42.2128 16.3249 44.8868 16.358 47.845C15.5873 47.2438 14.0405 47.1147 13.1526 47.5238C12.2646 47.9326 11.1696 49.467 12.0317 51.2515H32.1499C32.5464 48.8723 28.8817 47.2284 27.1049 48.5139Z" fill="#CDD3B1"/>
<path d="M32.697 38.1679C32.9339 36.43 31.4751 34.65 29.7245 34.5408C27.9735 34.4319 26.3054 36.0172 26.325 37.7714C25.8679 37.415 24.9509 37.3386 24.4244 37.5808C23.898 37.8235 23.2486 38.7332 23.7598 39.7911H35.6882C35.9234 38.3804 33.7504 37.4058 32.697 38.1679Z" fill="#CDD3B1"/>
<path d="M125.177 102.392C125.414 100.654 123.955 98.8736 122.204 98.7647C120.453 98.6557 118.785 100.241 118.805 101.995C118.348 101.639 117.431 101.562 116.904 101.805C116.378 102.047 115.729 102.957 116.24 104.015H128.168C128.403 102.604 126.23 101.63 125.177 102.392Z" fill="#CDD3B1"/>
<path d="M118.77 63.1005C119.007 61.3623 117.548 59.5823 115.798 59.4734C114.047 59.3645 112.379 60.9498 112.398 62.7038C111.941 62.3473 111.024 62.2709 110.498 62.5134C109.971 62.7559 109.322 63.6656 109.833 64.7237L121.761 64.7234C121.997 63.3128 119.824 62.3384 118.77 63.1005Z" fill="#CDD3B1"/>
<path d="M86.277 12.4989C86.5138 10.761 85.055 8.98072 83.3042 8.8718C81.5533 8.76288 79.8851 10.3482 79.905 12.1024C79.448 11.746 78.5308 11.6696 78.0044 11.9118C77.478 12.1542 76.8286 13.064 77.3396 14.1221H89.2682C89.5031 12.7114 87.3303 11.7368 86.277 12.4989Z" fill="#CDD3B1"/>
<path d="M40.2147 25.6046C40.4519 23.8667 38.9931 22.0864 37.2422 21.9775C35.4914 21.8686 33.8232 23.4539 33.8428 25.2081C33.3858 24.8517 32.4688 24.775 31.9421 25.0175C31.4157 25.2599 30.7664 26.1699 31.2777 27.2278H43.206C43.4412 25.8171 41.2684 24.8425 40.2147 25.6046Z" fill="#DDE3C2"/>
</svg>
