<svg width="22" height="22" viewBox="0 0 22 22" fill="none" xmlns="http://www.w3.org/2000/svg">
<path fill-rule="evenodd" clip-rule="evenodd" d="M4.20922 14.0289C2.14868 8.97118 5.86952 3.4375 11.3309 3.4375H11.6255C15.7098 3.4375 19.0208 6.74851 19.0208 10.8328C19.0208 15.3803 15.3344 19.0667 10.787 19.0667H3.61842C3.32668 19.0667 3.06671 18.8825 2.96989 18.6073C2.87306 18.3321 2.96047 18.0258 3.18793 17.8431L4.99513 16.3918C5.07415 16.3283 5.1021 16.2205 5.06386 16.1266L4.20922 14.0289ZM11.3309 4.8125C6.84603 4.8125 3.79049 9.35674 5.4826 13.5101L6.33724 15.6079C6.60491 16.2649 6.40924 17.0196 5.8561 17.4639L5.57244 17.6917H10.787C14.575 17.6917 17.6458 14.6209 17.6458 10.8328C17.6458 7.5079 14.9504 4.8125 11.6255 4.8125H11.3309Z" fill="#6D747A"/>
</svg>
