<svg width="22" height="22" viewBox="0 0 22 22" fill="none" xmlns="http://www.w3.org/2000/svg">
<path fill-rule="evenodd" clip-rule="evenodd" d="M10.6354 17.083C10.7527 17.1534 10.8781 17.1845 11 17.183C11.1219 17.1845 11.2473 17.1534 11.3646 17.083L12.4052 16.4586C14.4462 15.234 16.9423 15.034 19.1522 15.918C19.9674 16.2441 20.8542 15.6437 20.8542 14.7657V4.07837C20.8542 3.54859 20.5316 3.07218 20.0397 2.87542C17.1934 1.73689 13.9785 1.99449 11.3497 3.57172L11 3.78156L10.6503 3.57172C8.02155 1.99449 4.80662 1.73689 1.96029 2.87542C1.46839 3.07218 1.14584 3.54859 1.14584 4.07837V14.7657C1.14584 15.6437 2.03262 16.2441 2.84783 15.918C5.05773 15.034 7.55382 15.234 9.59477 16.4586L10.6354 17.083ZM2.52084 4.1323V14.5702C5.08365 13.6095 7.94915 13.8677 10.3022 15.2795L10.3125 15.2857V4.97258L9.94284 4.75078C7.69794 3.40383 4.95582 3.17619 2.52084 4.1323ZM11.6978 15.2795L11.6875 15.2857V4.97258L12.0572 4.75078C14.3021 3.40383 17.0442 3.17619 19.4792 4.1323V14.5702C16.9164 13.6095 14.0509 13.8677 11.6978 15.2795Z" fill="#6D747A"/>
<path d="M8.50224 17.4554C6.64704 16.3732 4.35298 16.3732 2.49778 17.4554L2.4036 17.5103C2.07563 17.7016 1.96484 18.1226 2.15616 18.4506C2.34748 18.7785 2.76845 18.8893 3.09642 18.698L3.1906 18.6431C4.61768 17.8106 6.38234 17.8106 7.80942 18.6431L8.80607 19.2244C10.1618 20.0153 11.8382 20.0153 13.1939 19.2244L14.1906 18.6431C15.6177 17.8106 17.3823 17.8106 18.8094 18.6431L18.9036 18.698C19.2316 18.8893 19.6525 18.7785 19.8439 18.4506C20.0352 18.1226 19.9244 17.7016 19.5964 17.5103L19.5022 17.4554C17.647 16.3732 15.353 16.3732 13.4978 17.4554L12.5011 18.0368C11.5735 18.5779 10.4265 18.5779 9.49889 18.0368L8.50224 17.4554Z" fill="#6D747A"/>
</svg>
