<svg width="22" height="22" viewBox="0 0 22 22" fill="none" xmlns="http://www.w3.org/2000/svg">
<path d="M12.6463 3.79145C11.7458 2.86139 10.2542 2.86139 9.35361 3.79145L4.95501 8.33421C4.70239 8.5951 4.53264 8.92493 4.46714 9.28213C3.93294 12.1953 3.89351 15.1776 4.3505 18.1039L4.51229 19.1399C4.5634 19.4671 4.84524 19.7083 5.17644 19.7083H8.24998C8.50311 19.7083 8.70832 19.5031 8.70832 19.25V12.8333H13.2916V19.25C13.2916 19.5031 13.4969 19.7083 13.75 19.7083H16.8235C17.1547 19.7083 17.4365 19.4671 17.4876 19.1399L17.6494 18.1039C18.1064 15.1776 18.067 12.1953 17.5328 9.28213C17.4673 8.92493 17.2975 8.5951 17.0449 8.33421L12.6463 3.79145Z" fill="#598BED"/>
</svg>
